<?xml version="1.0" encoding="UTF-8" standalone="no"?>
<!-- Created with Inkscape (http://www.inkscape.org/) -->

<svg
   xmlns:ns0="http://www.iki.fi/pav/software/textext/"
   xmlns:dc="http://purl.org/dc/elements/1.1/"
   xmlns:cc="http://creativecommons.org/ns#"
   xmlns:rdf="http://www.w3.org/1999/02/22-rdf-syntax-ns#"
   xmlns:svg="http://www.w3.org/2000/svg"
   xmlns="http://www.w3.org/2000/svg"
   xmlns:sodipodi="http://sodipodi.sourceforge.net/DTD/sodipodi-0.dtd"
   xmlns:inkscape="http://www.inkscape.org/namespaces/inkscape"
   width="297mm"
   height="210mm"
   id="svg2991"
   version="1.1"
   inkscape:version="0.48.4 r9939"
   sodipodi:docname="star-bloomfilter.svg">
  <sodipodi:namedview
     inkscape:document-units="mm"
     pagecolor="#ffffff"
     bordercolor="#666666"
     borderopacity="1.0"
     inkscape:pageopacity="0.0"
     inkscape:pageshadow="2"
     inkscape:zoom="1"
     inkscape:cx="501.40599"
     inkscape:cy="267.46929"
     inkscape:current-layer="layer1"
     id="namedview2995"
     showgrid="false"
     inkscape:window-width="1366"
     inkscape:window-height="706"
     inkscape:window-x="-8"
     inkscape:window-y="-8"
     inkscape:window-maximized="1"
     inkscape:object-nodes="true"
     inkscape:snap-bbox="true"
     inkscape:snap-page="true" />
  <defs
     id="defs2993" />
  <metadata
     id="metadata2997">
    <rdf:RDF>
      <cc:Work
         rdf:about="">
        <dc:format>image/svg+xml</dc:format>
        <dc:type
           rdf:resource="http://purl.org/dc/dcmitype/StillImage" />
        <dc:title />
      </cc:Work>
    </rdf:RDF>
  </metadata>
  <g
     id="layer1"
     inkscape:groupmode="layer"
     inkscape:label="Layer 1">
    <text
       sodipodi:linespacing="80.000001%"
       id="text3136"
       y="789.69763"
       x="52.117889"
       style="font-size:32px;font-style:normal;font-variant:normal;font-weight:normal;font-stretch:normal;text-align:start;line-height:80.00000119%;letter-spacing:0px;word-spacing:0px;writing-mode:lr-tb;text-anchor:start;fill:#000000;fill-opacity:1;stroke:none;font-family:Times New Roman;-inkscape-font-specification:Times New Roman"
       xml:space="preserve"><tspan
         y="789.69763"
         x="52.117889"
         id="tspan3138"
         sodipodi:role="line" /></text>
    <text
       sodipodi:linespacing="80.000001%"
       id="text3287"
       y="299.66138"
       x="333.87442"
       style="font-size:32px;font-style:normal;font-variant:normal;font-weight:normal;font-stretch:normal;text-align:start;line-height:80.00000119%;letter-spacing:0px;word-spacing:0px;writing-mode:lr-tb;text-anchor:start;fill:#000000;fill-opacity:1;stroke:none;font-family:Times New Roman;-inkscape-font-specification:Times New Roman"
       xml:space="preserve"><tspan
         style="font-size:28px;font-style:italic;font-weight:normal;-inkscape-font-specification:'Times New Roman, Italic'"
         y="299.66138"
         x="333.87442"
         id="tspan3289"
         sodipodi:role="line">G <tspan
   style="font-style:normal;-inkscape-font-specification:'Times New Roman,'"
   id="tspan5131" /></tspan></text>
    <text
       sodipodi:linespacing="80.000001%"
       id="text3287-7"
       y="298.9032"
       x="76.392868"
       style="font-size:32px;font-style:normal;font-variant:normal;font-weight:normal;font-stretch:normal;text-align:start;line-height:80.00000119%;letter-spacing:0px;word-spacing:0px;writing-mode:lr-tb;text-anchor:start;fill:#000000;fill-opacity:1;stroke:none;font-family:Times New Roman;-inkscape-font-specification:Times New Roman"
       xml:space="preserve"><tspan
         style="font-size:28px;font-style:italic;-inkscape-font-specification:'Times New Roman, Italic'"
         y="298.9032"
         x="76.392868"
         id="tspan3289-7"
         sodipodi:role="line">P</tspan></text>
    <path
       style="fill:none;stroke:#000000;stroke-width:1.29999995;stroke-linecap:butt;stroke-linejoin:miter;stroke-miterlimit:4;stroke-opacity:1;stroke-dasharray:none"
       d="m 374.00227,369.15793 c 0,14.19428 -12.15999,25.71428 -27.14286,25.71428 -14.98285,0 -27.14283,-11.52 -27.14283,-25.71428 0,-14.19429 12.15998,-25.71429 27.14283,-25.71429 14.98287,0 27.14286,11.52 27.14286,25.71429 z"
       id="path18552-5-7-1-9-4"
       inkscape:connector-curvature="0" />
    <path
       sodipodi:nodetypes="cc"
       style="fill:none;stroke:#000000;stroke-width:1.57467854;stroke-linecap:butt;stroke-linejoin:miter;stroke-miterlimit:4;stroke-opacity:1;stroke-dasharray:none;marker-end:none"
       d="m 345.9751,394.92189 c 0.006,52.9032 0.006,53.86824 0.006,53.86824"
       id="path2741-0-1-7-3-6-8"
       inkscape:connector-curvature="0" />
    <flowRoot
       xml:space="preserve"
       id="flowRoot18568-5-9-7-1-1"
       style="font-size:20px;font-style:normal;font-variant:normal;font-weight:normal;font-stretch:normal;text-align:start;line-height:120.00000477%;writing-mode:lr-tb;text-anchor:start;fill:#000000;fill-opacity:1;stroke:none;font-family:Arial;-inkscape-font-specification:Arial"
       transform="translate(107.81446,340.35948)"><flowRegion
         id="flowRegion18570-1-5-4-7-7"><rect
           id="rect18572-7-4-0-4-1"
           width="53.941124"
           height="46.92749"
           x="223.44574"
           y="15.816242"
           style="fill:#000000;fill-opacity:1" /></flowRegion><flowPara
         style="font-size:28px;font-weight:normal;line-height:121.00000381%;-inkscape-font-specification:Arial"
         id="flowPara18574-1-3-9-0-1">A1</flowPara></flowRoot>    <path
       style="fill:none;stroke:#000000;stroke-width:1.29999995;stroke-linecap:butt;stroke-linejoin:miter;stroke-miterlimit:4;stroke-opacity:1;stroke-dasharray:none"
       d="m 373.62032,473.93355 c 0,14.19428 -12.15999,25.71428 -27.14286,25.71428 -14.98285,0 -27.14283,-11.52 -27.14283,-25.71428 0,-14.19429 12.15998,-25.71429 27.14283,-25.71429 14.98287,0 27.14286,11.52 27.14286,25.71429 z"
       id="path18552-5-7-1-9-8-52"
       inkscape:connector-curvature="0" />
    <flowRoot
       xml:space="preserve"
       id="flowRoot18568-5-9-7-1-4-32"
       style="font-size:20px;font-style:normal;font-variant:normal;font-weight:normal;font-stretch:normal;text-align:start;line-height:120.00000477%;writing-mode:lr-tb;text-anchor:start;fill:#000000;fill-opacity:1;stroke:none;font-family:Arial;-inkscape-font-specification:Arial"
       transform="translate(108.29626,446.32075)"><flowRegion
         id="flowRegion18570-1-5-4-7-3-21"><rect
           id="rect18572-7-4-0-4-12-6"
           width="53.941124"
           height="46.92749"
           x="223.44574"
           y="15.816242"
           style="fill:#000000;fill-opacity:1" /></flowRegion><flowPara
         style="font-size:28px;line-height:121.00000381%"
         id="flowPara18574-1-3-9-0-3-8">B1</flowPara></flowRoot>    <path
       style="fill:none;stroke:#000000;stroke-width:1.29999995;stroke-linecap:butt;stroke-linejoin:miter;stroke-miterlimit:4;stroke-opacity:1;stroke-dasharray:none"
       d="m 374.29029,578.87114 c 0,14.19428 -12.15999,25.71428 -27.14286,25.71428 -14.98285,0 -27.14283,-11.52 -27.14283,-25.71428 0,-14.19429 12.15998,-25.71429 27.14283,-25.71429 14.98287,0 27.14286,11.52 27.14286,25.71429 z"
       id="path18552-5-7-1-9-8-93-7"
       inkscape:connector-curvature="0" />
    <flowRoot
       xml:space="preserve"
       id="flowRoot18568-5-9-7-1-4-32-6"
       style="font-size:20px;font-style:normal;font-variant:normal;font-weight:normal;font-stretch:normal;text-align:start;line-height:120.00000477%;writing-mode:lr-tb;text-anchor:start;fill:#000000;fill-opacity:1;stroke:none;font-family:Arial;-inkscape-font-specification:Arial"
       transform="translate(107.25835,550.90889)"><flowRegion
         id="flowRegion18570-1-5-4-7-3-21-5"><rect
           id="rect18572-7-4-0-4-12-6-0"
           width="53.941124"
           height="46.92749"
           x="223.44574"
           y="15.816242"
           style="fill:#000000;fill-opacity:1" /></flowRegion><flowPara
         style="font-size:28px;line-height:121.00000381%"
         id="flowPara18574-1-3-9-0-3-8-9">C1</flowPara></flowRoot>    <flowRoot
       style="font-size:13px;font-style:normal;font-weight:normal;line-height:125%;letter-spacing:0px;word-spacing:0px;fill:#000000;fill-opacity:1;stroke:none;font-family:Sans"
       id="flowRoot3681"
       xml:space="preserve"><flowRegion
         id="flowRegion3683"><rect
           y="248.88348"
           x="532.0639"
           height="13.819841"
           width="6.9099207"
           id="rect3685" /></flowRegion><flowPara
         id="flowPara3687">A</flowPara></flowRoot>    <path
       sodipodi:nodetypes="cc"
       style="fill:none;stroke:#000000;stroke-width:1.57467854;stroke-linecap:butt;stroke-linejoin:miter;stroke-miterlimit:4;stroke-opacity:1;stroke-dasharray:none;marker-end:none"
       d="m 347.16108,499.84213 c 0.006,52.9032 0.006,53.86824 0.006,53.86824"
       id="path2741-0-1-7-3-6-8-1"
       inkscape:connector-curvature="0" />
    <path
       style="fill:none;stroke:#000000;stroke-width:1.29999995;stroke-linecap:butt;stroke-linejoin:miter;stroke-miterlimit:4;stroke-opacity:1;stroke-dasharray:none"
       d="m 276.2966,678.8197 c 0,14.19428 -12.15999,25.71428 -27.14286,25.71428 -14.98285,0 -27.14283,-11.52 -27.14283,-25.71428 0,-14.19429 12.15998,-25.71429 27.14283,-25.71429 14.98287,0 27.14286,11.52 27.14286,25.71429 z"
       id="path18552-5-7-1-9-8-52-7"
       inkscape:connector-curvature="0" />
    <path
       style="fill:none;stroke:#000000;stroke-width:1.29999995;stroke-linecap:butt;stroke-linejoin:miter;stroke-miterlimit:4;stroke-opacity:1;stroke-dasharray:none"
       d="m 471.49014,680.68689 c 0,14.19428 -12.15999,25.71428 -27.14286,25.71428 -14.98285,0 -27.14283,-11.52 -27.14283,-25.71428 0,-14.19429 12.15998,-25.71429 27.14283,-25.71429 14.98287,0 27.14286,11.52 27.14286,25.71429 z"
       id="path18552-5-7-1-9-8-52-8"
       inkscape:connector-curvature="0" />
    <flowRoot
       xml:space="preserve"
       id="flowRoot18568-5-9-7-1-4-32-8"
       style="font-size:20px;font-style:normal;font-variant:normal;font-weight:normal;font-stretch:normal;text-align:start;line-height:120.00000477%;writing-mode:lr-tb;text-anchor:start;fill:#000000;fill-opacity:1;stroke:none;font-family:Arial;-inkscape-font-specification:Arial"
       transform="translate(206.16608,653.07409)"><flowRegion
         id="flowRegion18570-1-5-4-7-3-21-24"><rect
           id="rect18572-7-4-0-4-12-6-5"
           width="53.941124"
           height="46.92749"
           x="223.44574"
           y="15.816242"
           style="fill:#000000;fill-opacity:1" /></flowRegion><flowPara
         style="font-size:28px;line-height:121.00000381%"
         id="flowPara18574-1-3-9-0-3-8-5">Z1</flowPara></flowRoot>    <path
       sodipodi:nodetypes="cc"
       style="fill:none;stroke:#000000;stroke-width:1.41466427;stroke-linecap:butt;stroke-linejoin:miter;stroke-miterlimit:4;stroke-opacity:1;stroke-dasharray:none;marker-end:none"
       d="m 367.28764,595.30034 c 66.25041,60.80417 67.45561,61.91026 67.45561,61.91026"
       id="path2741-0-1-7-3-3-7-5-1"
       inkscape:connector-curvature="0" />
    <path
       sodipodi:nodetypes="cc"
       style="fill:none;stroke:#000000;stroke-width:1.45499134;stroke-linecap:butt;stroke-linejoin:miter;stroke-miterlimit:4;stroke-opacity:1;stroke-dasharray:none;marker-end:none"
       d="M 326.1233,595.46439 C 252.65599,652.3589 251.3195,653.3939 251.3195,653.3939"
       id="path2741-0-1-7-3-3-7-5-1-7"
       inkscape:connector-curvature="0" />
    <flowRoot
       xml:space="preserve"
       id="flowRoot18568-5-9-7-1-4-32-4-1"
       style="font-size:20px;font-style:normal;font-variant:normal;font-weight:normal;font-stretch:normal;text-align:start;line-height:120.00000477%;writing-mode:lr-tb;text-anchor:start;fill:#000000;fill-opacity:1;stroke:none;font-family:Arial;-inkscape-font-specification:Arial"
       transform="translate(129.04309,643.29072)"><flowRegion
         id="flowRegion18570-1-5-4-7-3-21-0-1"><rect
           id="rect18572-7-4-0-4-12-6-9-5"
           width="95.472565"
           height="62.399986"
           x="223.44574"
           y="15.816242"
           style="fill:#000000;fill-opacity:1" /></flowRegion><flowPara
         style="font-size:28px;line-height:121.00000381%"
         id="flowPara18574-1-3-9-0-3-8-4-2">... ...</flowPara></flowRoot>    <path
       style="fill:none;stroke:#000000;stroke-width:1.29999995;stroke-linecap:butt;stroke-linejoin:miter;stroke-miterlimit:4;stroke-opacity:1;stroke-dasharray:none"
       d="m 341.32608,679.42952 c 0,14.19428 -12.15999,25.71428 -27.14286,25.71428 -14.98285,0 -27.14283,-11.52 -27.14283,-25.71428 0,-14.19429 12.15998,-25.71429 27.14283,-25.71429 14.98287,0 27.14286,11.52 27.14286,25.71429 z"
       id="path18552-5-7-1-9-8-52-7-7"
       inkscape:connector-curvature="0" />
    <path
       sodipodi:nodetypes="cc"
       style="fill:none;stroke:#000000;stroke-width:1.13031495;stroke-linecap:butt;stroke-linejoin:miter;stroke-miterlimit:4;stroke-opacity:1;stroke-dasharray:none;marker-end:none"
       d="m 340.15203,603.62395 c -24.01664,49.39864 -24.45354,50.29727 -24.45354,50.29727"
       id="path2741-0-1-7-3-3-7-5-1-7-2"
       inkscape:connector-curvature="0" />
    <flowRoot
       xml:space="preserve"
       id="flowRoot18568-5-9-7-1-1-2"
       style="font-size:20px;font-style:normal;font-variant:normal;font-weight:normal;font-stretch:normal;text-align:start;line-height:120.00000477%;writing-mode:lr-tb;text-anchor:start;fill:#000000;fill-opacity:1;stroke:none;font-family:Arial;-inkscape-font-specification:Arial"
       transform="translate(9.86584,650.4223)"><flowRegion
         id="flowRegion18570-1-5-4-7-7-1"><rect
           id="rect18572-7-4-0-4-1-6"
           width="53.941124"
           height="46.92749"
           x="223.44574"
           y="15.816242"
           style="fill:#000000;fill-opacity:1" /></flowRegion><flowPara
         style="font-size:28px;font-weight:normal;line-height:121.00000381%;-inkscape-font-specification:Arial"
         id="flowPara18574-1-3-9-0-1-8">A2</flowPara></flowRoot>    <flowRoot
       xml:space="preserve"
       id="flowRoot18568-5-9-7-1-4-32-5"
       style="font-size:20px;font-style:normal;font-variant:normal;font-weight:normal;font-stretch:normal;text-align:start;line-height:120.00000477%;writing-mode:lr-tb;text-anchor:start;fill:#000000;fill-opacity:1;stroke:none;font-family:Arial;-inkscape-font-specification:Arial"
       transform="translate(75.9673,651.47516)"><flowRegion
         id="flowRegion18570-1-5-4-7-3-21-7"><rect
           id="rect18572-7-4-0-4-12-6-6"
           width="53.941124"
           height="46.92749"
           x="223.44574"
           y="15.816242"
           style="fill:#000000;fill-opacity:1" /></flowRegion><flowPara
         style="font-size:28px;line-height:121.00000381%"
         id="flowPara18574-1-3-9-0-3-8-1">B2</flowPara></flowRoot>    <rect
       style="fill:none;stroke:#000000;stroke-width:0.83075339;stroke-miterlimit:4.19999981;stroke-opacity:1;stroke-dasharray:none"
       id="rect4188-3"
       width="33.320377"
       height="32.168732"
       x="445.04507"
       y="460.24072" />
    <path
       sodipodi:nodetypes="csscccc"
       id="path14731"
       d="m 346.23687,335.94554 c 8.49419,1.0132 39.46906,7.92019 45.83786,28.1123 6.74631,21.38899 4.64858,93.96112 5.15785,139.96642 0.53553,48.37584 0.27161,81.97711 -0.40512,89.55716 -6.68883,31.58417 -24.78791,15.39802 -66.21059,17.23509 -40.51089,-0.73701 -25.76149,-28.37604 -25.91878,-119.6063 3.46335,-142.58149 -6.50808,-144.73467 41.53878,-155.26467 z"
       style="fill:none;stroke:#000000;stroke-width:1.09779799;stroke-linecap:butt;stroke-linejoin:miter;stroke-miterlimit:4;stroke-opacity:1;stroke-dasharray:8.78238403, 8.78238403;stroke-dashoffset:0"
       inkscape:connector-curvature="0" />
    <path
       style="fill:none;stroke:#000000;stroke-width:1.29999995;stroke-linecap:butt;stroke-linejoin:miter;stroke-miterlimit:4;stroke-opacity:1;stroke-dasharray:none"
       d="m 108.46737,379.55542 c 0,14.19428 -12.15999,25.71428 -27.14286,25.71428 -14.98285,0 -27.14283,-11.52 -27.14283,-25.71428 0,-14.19429 12.15998,-25.71429 27.14283,-25.71429 14.98287,0 27.14286,11.52 27.14286,25.71429 z"
       id="path18552-5-7-1-9-4-4"
       inkscape:connector-curvature="0" />
    <path
       sodipodi:nodetypes="cc"
       style="fill:none;stroke:#000000;stroke-width:1.57467854;stroke-linecap:butt;stroke-linejoin:miter;stroke-miterlimit:4;stroke-opacity:1;stroke-dasharray:none;marker-end:none"
       d="m 80.4402,405.31938 c 0.006,52.9032 0.006,53.86824 0.006,53.86824"
       id="path2741-0-1-7-3-6-8-9"
       inkscape:connector-curvature="0" />
    <path
       style="fill:none;stroke:#000000;stroke-width:1.29999995;stroke-linecap:butt;stroke-linejoin:miter;stroke-miterlimit:4;stroke-opacity:1;stroke-dasharray:none"
       d="m 108.08542,484.33104 c 0,14.19428 -12.15999,25.71428 -27.14286,25.71428 -14.98285,0 -27.14283,-11.52 -27.14283,-25.71428 0,-14.19429 12.15998,-25.71429 27.14283,-25.71429 14.98287,0 27.14286,11.52 27.14286,25.71429 z"
       id="path18552-5-7-1-9-8-52-5"
       inkscape:connector-curvature="0" />
    <path
       style="fill:none;stroke:#000000;stroke-width:1.29999995;stroke-linecap:butt;stroke-linejoin:miter;stroke-miterlimit:4;stroke-opacity:1;stroke-dasharray:none"
       d="m 108.75539,589.26858 c 0,14.1943 -12.15999,25.7143 -27.14286,25.7143 -14.98285,0 -27.14283,-11.52 -27.14283,-25.7143 0,-14.19424 12.15998,-25.71424 27.14283,-25.71424 14.98287,0 27.14286,11.52 27.14286,25.71424 z"
       id="path18552-5-7-1-9-8-93-7-6"
       inkscape:connector-curvature="0" />
    <path
       sodipodi:nodetypes="cc"
       style="fill:none;stroke:#000000;stroke-width:1.57467854;stroke-linecap:butt;stroke-linejoin:miter;stroke-miterlimit:4;stroke-opacity:1;stroke-dasharray:none;marker-end:none"
       d="m 81.62618,510.23962 c 0.006,52.9032 0.006,53.86824 0.006,53.86824"
       id="path2741-0-1-7-3-6-8-1-5"
       inkscape:connector-curvature="0" />
    <flowRoot
       xml:space="preserve"
       id="flowRoot18568-5-9-7-1-1-2-4-7"
       style="font-size:20px;font-style:normal;font-variant:normal;font-weight:normal;font-stretch:normal;text-align:start;line-height:120.00000477%;writing-mode:lr-tb;text-anchor:start;fill:#000000;fill-opacity:1;stroke:none;font-family:Arial;-inkscape-font-specification:Arial"
       transform="translate(-151.61871,350.74486)"><flowRegion
         id="flowRegion18570-1-5-4-7-7-1-05-7"><rect
           id="rect18572-7-4-0-4-1-6-4-9"
           width="53.941124"
           height="46.92749"
           x="223.44574"
           y="15.816242"
           style="fill:#000000;fill-opacity:1" /></flowRegion><flowPara
         style="font-size:28px;font-weight:normal;line-height:121.00000381%;-inkscape-font-specification:Arial"
         id="flowPara18574-1-3-9-0-1-8-7-5">A</flowPara></flowRoot>    <flowRoot
       xml:space="preserve"
       id="flowRoot18568-5-9-7-1-4-32-5-2-5"
       style="font-size:20px;font-style:normal;font-variant:normal;font-weight:normal;font-stretch:normal;text-align:start;line-height:120.00000477%;writing-mode:lr-tb;text-anchor:start;fill:#000000;fill-opacity:1;stroke:none;font-family:Arial;-inkscape-font-specification:Arial"
       transform="translate(-150.95399,454.32248)"><flowRegion
         id="flowRegion18570-1-5-4-7-3-21-7-1-4"><rect
           id="rect18572-7-4-0-4-12-6-6-4-0"
           width="53.941124"
           height="46.92749"
           x="223.44574"
           y="15.816242"
           style="fill:#000000;fill-opacity:1" /></flowRegion><flowPara
         style="font-size:28px;line-height:121.00000381%"
         id="flowPara18574-1-3-9-0-3-8-1-9-3">B</flowPara></flowRoot>    <flowRoot
       xml:space="preserve"
       id="flowRoot18568-5-9-7-1-4-32-6-5-4"
       style="font-size:20px;font-style:normal;font-variant:normal;font-weight:normal;font-stretch:normal;text-align:start;line-height:120.00000477%;writing-mode:lr-tb;text-anchor:start;fill:#000000;fill-opacity:1;stroke:none;font-family:Arial;-inkscape-font-specification:Arial"
       transform="translate(-151.21841,561.07299)"><flowRegion
         id="flowRegion18570-1-5-4-7-3-21-5-5-1"><rect
           id="rect18572-7-4-0-4-12-6-0-2-2"
           width="53.941124"
           height="46.92749"
           x="223.44574"
           y="15.816242"
           style="fill:#000000;fill-opacity:1" /></flowRegion><flowPara
         style="font-size:28px;line-height:121.00000381%"
         id="flowPara18574-1-3-9-0-3-8-9-14-2">C</flowPara></flowRoot>    <flowRoot
       transform="translate(27.41497,300.10354)"
       style="font-size:32px;font-style:normal;font-variant:normal;font-weight:normal;font-stretch:normal;text-align:start;line-height:80.00000119%;letter-spacing:0px;word-spacing:0px;writing-mode:lr-tb;text-anchor:start;fill:#000000;fill-opacity:1;stroke:none;font-family:Times New Roman;-inkscape-font-specification:Times New Roman"
       id="flowRoot13924-4-4-2-6-0-8"
       xml:space="preserve"><flowRegion
         id="flowRegion13926-1-7-8-2-76-5"><rect
           y="72.362183"
           x="90"
           height="40"
           width="87.14286"
           id="rect13928-2-8-2-14-7-8" /></flowRegion><flowPara
         style="font-size:20px"
         id="flowPara13930-0-3-5-6-83-3">[1,+   ]</flowPara></flowRoot>    <g
       id="content-3-64-9"
       transform="matrix(1.5846209,0,0,-1.5231682,-203.41829,1457.3845)"
       xml:space="preserve"
       stroke-miterlimit="10.433"
       font-style="normal"
       font-variant="normal"
       font-weight="normal"
       font-stretch="normal"
       font-size-adjust="none"
       letter-spacing="normal"
       word-spacing="normal"
       ns0:text="$\\infty$"
       ns0:preamble=""
       style="font-style:normal;font-variant:normal;font-weight:normal;font-stretch:normal;letter-spacing:normal;word-spacing:normal;text-anchor:start;fill:none;stroke:#000000;stroke-linecap:butt;stroke-linejoin:miter;stroke-miterlimit:10.43299961;stroke-opacity:1;stroke-dasharray:none;stroke-dashoffset:0">
<path
   d="m 228.5,709.82 -0.05,0.06 -0.05,0.06 -0.04,0.06 -0.05,0.05 -0.04,0.05 -0.04,0.05 -0.03,0.05 -0.04,0.04 -0.03,0.04 -0.03,0.04 -0.04,0.04 -0.02,0.03 -0.03,0.04 -0.03,0.03 -0.03,0.03 -0.02,0.03 -0.03,0.03 -0.02,0.03 -0.03,0.02 -0.02,0.03 -0.05,0.04 -0.05,0.05 -0.04,0.04 -0.05,0.05 -0.06,0.04 -0.02,0.02 -0.03,0.03 c -0.56,0.44 -1.12,0.62 -1.63,0.62 -1.16,0 -1.92,-1.09 -1.92,-2.25 h 0.22 c 0,0.97 0.67,1.78 1.54,1.78 0.58,0 1.03,-0.42 1.24,-0.63 0.25,-0.27 0.48,-0.58 1.09,-1.36 h 0 c -0.41,-0.72 -1.15,-1.73 -2.28,-1.73 -1.05,0 -1.59,1.04 -1.59,1.94 h -0.22 c 0,-1.15 0.74,-2.25 1.88,-2.25 1.15,0 1.98,0.9 2.47,1.7 0.54,-0.68 0.65,-0.83 0.96,-1.08 0.56,-0.44 1.12,-0.62 1.63,-0.62 1.17,0 1.92,1.09 1.92,2.26 h -0.22 c 0,-0.98 -0.66,-1.79 -1.54,-1.79 -0.58,0 -1.03,0.42 -1.24,0.63 -0.25,0.27 -0.48,0.58 -1.08,1.36 h 0 c 0.4,0.72 1.14,1.73 2.27,1.73 1.06,0 1.59,-1.04 1.59,-1.93 h 0.22 c 0,1.14 -0.74,2.24 -1.88,2.24 -1.15,0 -1.98,-0.9 -2.46,-1.7 z"
   id="path4056-8-4-4"
   inkscape:connector-curvature="0"
   style="fill:#000000;stroke-width:0" />
</g>    <flowRoot
       transform="translate(29.04365,407.59668)"
       style="font-size:32px;font-style:normal;font-variant:normal;font-weight:normal;font-stretch:normal;text-align:start;line-height:80.00000119%;letter-spacing:0px;word-spacing:0px;writing-mode:lr-tb;text-anchor:start;fill:#000000;fill-opacity:1;stroke:none;font-family:Times New Roman;-inkscape-font-specification:Times New Roman"
       id="flowRoot13924-4-4-2-6-0-4"
       xml:space="preserve"><flowRegion
         id="flowRegion13926-1-7-8-2-76-6"><rect
           y="72.362183"
           x="90"
           height="40"
           width="87.14286"
           id="rect13928-2-8-2-14-7-9" /></flowRegion><flowPara
         style="font-size:20px"
         id="flowPara13930-0-3-5-6-83-8">[1,+   ]</flowPara></flowRoot>    <g
       id="content-3-64-5"
       transform="matrix(1.5846209,0,0,-1.5231682,-201.78961,1564.8777)"
       xml:space="preserve"
       stroke-miterlimit="10.433"
       font-style="normal"
       font-variant="normal"
       font-weight="normal"
       font-stretch="normal"
       font-size-adjust="none"
       letter-spacing="normal"
       word-spacing="normal"
       ns0:text="$\\infty$"
       ns0:preamble=""
       style="font-style:normal;font-variant:normal;font-weight:normal;font-stretch:normal;letter-spacing:normal;word-spacing:normal;text-anchor:start;fill:none;stroke:#000000;stroke-linecap:butt;stroke-linejoin:miter;stroke-miterlimit:10.43299961;stroke-opacity:1;stroke-dasharray:none;stroke-dashoffset:0">
<path
   d="m 228.5,709.82 -0.05,0.06 -0.05,0.06 -0.04,0.06 -0.05,0.05 -0.04,0.05 -0.04,0.05 -0.03,0.05 -0.04,0.04 -0.03,0.04 -0.03,0.04 -0.04,0.04 -0.02,0.03 -0.03,0.04 -0.03,0.03 -0.03,0.03 -0.02,0.03 -0.03,0.03 -0.02,0.03 -0.03,0.02 -0.02,0.03 -0.05,0.04 -0.05,0.05 -0.04,0.04 -0.05,0.05 -0.06,0.04 -0.02,0.02 -0.03,0.03 c -0.56,0.44 -1.12,0.62 -1.63,0.62 -1.16,0 -1.92,-1.09 -1.92,-2.25 h 0.22 c 0,0.97 0.67,1.78 1.54,1.78 0.58,0 1.03,-0.42 1.24,-0.63 0.25,-0.27 0.48,-0.58 1.09,-1.36 h 0 c -0.41,-0.72 -1.15,-1.73 -2.28,-1.73 -1.05,0 -1.59,1.04 -1.59,1.94 h -0.22 c 0,-1.15 0.74,-2.25 1.88,-2.25 1.15,0 1.98,0.9 2.47,1.7 0.54,-0.68 0.65,-0.83 0.96,-1.08 0.56,-0.44 1.12,-0.62 1.63,-0.62 1.17,0 1.92,1.09 1.92,2.26 h -0.22 c 0,-0.98 -0.66,-1.79 -1.54,-1.79 -0.58,0 -1.03,0.42 -1.24,0.63 -0.25,0.27 -0.48,0.58 -1.08,1.36 h 0 c 0.4,0.72 1.14,1.73 2.27,1.73 1.06,0 1.59,-1.04 1.59,-1.93 h 0.22 c 0,1.14 -0.74,2.24 -1.88,2.24 -1.15,0 -1.98,-0.9 -2.46,-1.7 z"
   id="path4056-8-4-6"
   inkscape:connector-curvature="0"
   style="fill:#000000;stroke-width:0" />
</g>    <flowRoot
       transform="translate(29.78628,510.20377)"
       style="font-size:32px;font-style:normal;font-variant:normal;font-weight:normal;font-stretch:normal;text-align:start;line-height:80.00000119%;letter-spacing:0px;word-spacing:0px;writing-mode:lr-tb;text-anchor:start;fill:#000000;fill-opacity:1;stroke:none;font-family:Times New Roman;-inkscape-font-specification:Times New Roman"
       id="flowRoot13924-4-4-2-6-0-6"
       xml:space="preserve"><flowRegion
         id="flowRegion13926-1-7-8-2-76-0"><rect
           y="72.362183"
           x="90"
           height="40"
           width="87.14286"
           id="rect13928-2-8-2-14-7-7" /></flowRegion><flowPara
         style="font-size:20px"
         id="flowPara13930-0-3-5-6-83-2">[1,+   ]</flowPara></flowRoot>    <g
       id="content-3-64-7"
       transform="matrix(1.5846209,0,0,-1.5231682,-201.04697,1667.4848)"
       xml:space="preserve"
       stroke-miterlimit="10.433"
       font-style="normal"
       font-variant="normal"
       font-weight="normal"
       font-stretch="normal"
       font-size-adjust="none"
       letter-spacing="normal"
       word-spacing="normal"
       ns0:text="$\\infty$"
       ns0:preamble=""
       style="font-style:normal;font-variant:normal;font-weight:normal;font-stretch:normal;letter-spacing:normal;word-spacing:normal;text-anchor:start;fill:none;stroke:#000000;stroke-linecap:butt;stroke-linejoin:miter;stroke-miterlimit:10.43299961;stroke-opacity:1;stroke-dasharray:none;stroke-dashoffset:0">
<path
   d="m 228.5,709.82 -0.05,0.06 -0.05,0.06 -0.04,0.06 -0.05,0.05 -0.04,0.05 -0.04,0.05 -0.03,0.05 -0.04,0.04 -0.03,0.04 -0.03,0.04 -0.04,0.04 -0.02,0.03 -0.03,0.04 -0.03,0.03 -0.03,0.03 -0.02,0.03 -0.03,0.03 -0.02,0.03 -0.03,0.02 -0.02,0.03 -0.05,0.04 -0.05,0.05 -0.04,0.04 -0.05,0.05 -0.06,0.04 -0.02,0.02 -0.03,0.03 c -0.56,0.44 -1.12,0.62 -1.63,0.62 -1.16,0 -1.92,-1.09 -1.92,-2.25 h 0.22 c 0,0.97 0.67,1.78 1.54,1.78 0.58,0 1.03,-0.42 1.24,-0.63 0.25,-0.27 0.48,-0.58 1.09,-1.36 h 0 c -0.41,-0.72 -1.15,-1.73 -2.28,-1.73 -1.05,0 -1.59,1.04 -1.59,1.94 h -0.22 c 0,-1.15 0.74,-2.25 1.88,-2.25 1.15,0 1.98,0.9 2.47,1.7 0.54,-0.68 0.65,-0.83 0.96,-1.08 0.56,-0.44 1.12,-0.62 1.63,-0.62 1.17,0 1.92,1.09 1.92,2.26 h -0.22 c 0,-0.98 -0.66,-1.79 -1.54,-1.79 -0.58,0 -1.03,0.42 -1.24,0.63 -0.25,0.27 -0.48,0.58 -1.08,1.36 h 0 c 0.4,0.72 1.14,1.73 2.27,1.73 1.06,0 1.59,-1.04 1.59,-1.93 h 0.22 c 0,1.14 -0.74,2.24 -1.88,2.24 -1.15,0 -1.98,-0.9 -2.46,-1.7 z"
   id="path4056-8-4-2"
   inkscape:connector-curvature="0"
   style="fill:#000000;stroke-width:0" />
</g>    <rect
       style="fill:none;stroke:#000000;stroke-width:0.83075339;stroke-miterlimit:4.19999981;stroke-opacity:1;stroke-dasharray:none"
       id="rect4188-3-6"
       width="33.320377"
       height="32.168732"
       x="478.15518"
       y="460.2406" />
    <rect
       style="fill:none;stroke:#000000;stroke-width:0.83075339;stroke-miterlimit:4.19999981;stroke-opacity:1;stroke-dasharray:none"
       id="rect4188-3-4"
       width="33.320377"
       height="32.168732"
       x="511.40915"
       y="460.24072" />
    <rect
       style="fill:none;stroke:#000000;stroke-width:0.83075339;stroke-miterlimit:4.19999981;stroke-opacity:1;stroke-dasharray:none"
       id="rect4188-3-6-7"
       width="33.320377"
       height="32.168732"
       x="544.51923"
       y="460.2406" />
    <rect
       style="fill:none;stroke:#000000;stroke-width:0.83075339;stroke-miterlimit:4.19999981;stroke-opacity:1;stroke-dasharray:none"
       id="rect4188-3-1"
       width="33.320377"
       height="32.168732"
       x="578.00354"
       y="460.19714" />
    <rect
       style="fill:none;stroke:#000000;stroke-width:0.83075339;stroke-miterlimit:4.19999981;stroke-opacity:1;stroke-dasharray:none"
       id="rect4188-3-6-3"
       width="33.320377"
       height="32.168732"
       x="611.11365"
       y="460.19714" />
    <rect
       style="fill:none;stroke:#000000;stroke-width:0.83075339;stroke-miterlimit:4.19999981;stroke-opacity:1;stroke-dasharray:none"
       id="rect4188-3-4-2"
       width="33.320377"
       height="32.168732"
       x="644.36761"
       y="460.19714" />
    <rect
       style="fill:none;stroke:#000000;stroke-width:0.83075339;stroke-miterlimit:4.19999981;stroke-opacity:1;stroke-dasharray:none"
       id="rect4188-3-6-7-1"
       width="33.320377"
       height="32.168732"
       x="677.47772"
       y="460.19714" />
    <rect
       style="fill:none;stroke:#000000;stroke-width:0.83075339;stroke-miterlimit:4.19999981;stroke-opacity:1;stroke-dasharray:none"
       id="rect4188-3-1-6"
       width="33.320377"
       height="32.168732"
       x="711.0603"
       y="460.11401" />
    <rect
       style="fill:none;stroke:#000000;stroke-width:0.83075339;stroke-miterlimit:4.19999981;stroke-opacity:1;stroke-dasharray:none"
       id="rect4188-3-6-3-3"
       width="33.320377"
       height="32.168732"
       x="744.17041"
       y="460.11401" />
    <rect
       style="fill:none;stroke:#000000;stroke-width:0.83075339;stroke-miterlimit:4.19999981;stroke-opacity:1;stroke-dasharray:none"
       id="rect4188-3-4-2-8"
       width="33.320377"
       height="32.168732"
       x="777.42438"
       y="460.11401" />
    <rect
       style="fill:none;stroke:#000000;stroke-width:0.83075339;stroke-miterlimit:4.19999981;stroke-opacity:1;stroke-dasharray:none"
       id="rect4188-3-6-7-1-3"
       width="33.320377"
       height="32.168732"
       x="810.53448"
       y="460.11401" />
    <text
       transform="scale(0.96989523,1.0310392)"
       sodipodi:linespacing="125%"
       id="text3744-1-2-2"
       y="470.03561"
       x="538.55273"
       style="font-size:12.60863781px;font-style:normal;font-weight:normal;line-height:125%;letter-spacing:0px;word-spacing:0px;fill:#000000;fill-opacity:1;stroke:none;font-family:Sans"
       xml:space="preserve"><tspan
         style="font-size:20px"
         y="470.03561"
         x="538.55273"
         id="tspan3746-4-3-86"
         sodipodi:role="line">1</tspan></text>
    <text
       transform="scale(0.96989523,1.0310392)"
       sodipodi:linespacing="125%"
       id="text3744-1-2-2-2"
       y="469.74106"
       x="642.44312"
       style="font-size:12.60863781px;font-style:normal;font-weight:normal;line-height:125%;letter-spacing:0px;word-spacing:0px;fill:#000000;fill-opacity:1;stroke:none;font-family:Sans"
       xml:space="preserve"><tspan
         style="font-size:20px"
         y="469.74106"
         x="642.44312"
         id="tspan3746-4-3-86-6"
         sodipodi:role="line">1</tspan></text>
    <text
       transform="scale(0.96989523,1.0310392)"
       sodipodi:linespacing="125%"
       id="text3744-1-2-2-0"
       y="469.74112"
       x="709.53125"
       style="font-size:12.60863781px;font-style:normal;font-weight:normal;line-height:125%;letter-spacing:0px;word-spacing:0px;fill:#000000;fill-opacity:1;stroke:none;font-family:Sans"
       xml:space="preserve"><tspan
         style="font-size:20px"
         y="469.74112"
         x="709.53125"
         id="tspan3746-4-3-86-5"
         sodipodi:role="line">1</tspan></text>
    <text
       transform="scale(0.96989523,1.0310392)"
       sodipodi:linespacing="125%"
       id="text3744-1-2-2-4"
       y="469.74106"
       x="777.8067"
       style="font-size:12.60863781px;font-style:normal;font-weight:normal;line-height:125%;letter-spacing:0px;word-spacing:0px;fill:#000000;fill-opacity:1;stroke:none;font-family:Sans"
       xml:space="preserve"><tspan
         style="font-size:20px"
         y="469.74106"
         x="777.8067"
         id="tspan3746-4-3-86-67"
         sodipodi:role="line">1</tspan></text>
    <text
       transform="scale(0.96989523,1.0310392)"
       sodipodi:linespacing="125%"
       id="text3744-1-2-2-9"
       y="468.91827"
       x="469.67642"
       style="font-size:12.60863781px;font-style:normal;font-weight:normal;line-height:125%;letter-spacing:0px;word-spacing:0px;fill:#000000;fill-opacity:1;stroke:none;font-family:Sans"
       xml:space="preserve"><tspan
         style="font-size:20px"
         y="468.91827"
         x="469.67642"
         id="tspan3746-4-3-86-3"
         sodipodi:role="line">0</tspan></text>
    <text
       transform="scale(0.96989523,1.0310392)"
       sodipodi:linespacing="125%"
       id="text3744-1-2-2-9-4"
       y="469.22998"
       x="504.02115"
       style="font-size:12.60863781px;font-style:normal;font-weight:normal;line-height:125%;letter-spacing:0px;word-spacing:0px;fill:#000000;fill-opacity:1;stroke:none;font-family:Sans"
       xml:space="preserve"><tspan
         style="font-size:20px"
         y="469.22998"
         x="504.02115"
         id="tspan3746-4-3-86-3-7"
         sodipodi:role="line">0</tspan></text>
    <text
       transform="scale(0.96989523,1.0310392)"
       sodipodi:linespacing="125%"
       id="text3744-1-2-2-9-8"
       y="469.53336"
       x="573.57336"
       style="font-size:12.60863781px;font-style:normal;font-weight:normal;line-height:125%;letter-spacing:0px;word-spacing:0px;fill:#000000;fill-opacity:1;stroke:none;font-family:Sans"
       xml:space="preserve"><tspan
         style="font-size:20px"
         y="469.53336"
         x="573.57336"
         id="tspan3746-4-3-86-3-8"
         sodipodi:role="line">0</tspan></text>
    <text
       transform="scale(0.96989523,1.0310392)"
       sodipodi:linespacing="125%"
       id="text3744-1-2-2-9-1"
       y="469.7308"
       x="607.57794"
       style="font-size:12.60863781px;font-style:normal;font-weight:normal;line-height:125%;letter-spacing:0px;word-spacing:0px;fill:#000000;fill-opacity:1;stroke:none;font-family:Sans"
       xml:space="preserve"><tspan
         style="font-size:20px"
         y="469.7308"
         x="607.57794"
         id="tspan3746-4-3-86-3-6"
         sodipodi:role="line">0</tspan></text>
    <text
       transform="scale(0.96989523,1.0310392)"
       sodipodi:linespacing="125%"
       id="text3744-1-2-2-9-3"
       y="470.32321"
       x="675.16724"
       style="font-size:12.60863781px;font-style:normal;font-weight:normal;line-height:125%;letter-spacing:0px;word-spacing:0px;fill:#000000;fill-opacity:1;stroke:none;font-family:Sans"
       xml:space="preserve"><tspan
         style="font-size:20px"
         y="470.32321"
         x="675.16724"
         id="tspan3746-4-3-86-3-87"
         sodipodi:role="line">0</tspan></text>
    <text
       transform="scale(0.96989523,1.0310392)"
       sodipodi:linespacing="125%"
       id="text3744-1-2-2-9-6"
       y="470.52066"
       x="744.85553"
       style="font-size:12.60863781px;font-style:normal;font-weight:normal;line-height:125%;letter-spacing:0px;word-spacing:0px;fill:#000000;fill-opacity:1;stroke:none;font-family:Sans"
       xml:space="preserve"><tspan
         style="font-size:20px"
         y="470.52066"
         x="744.85553"
         id="tspan3746-4-3-86-3-1"
         sodipodi:role="line">0</tspan></text>
    <text
       transform="scale(0.96989523,1.0310392)"
       sodipodi:linespacing="125%"
       id="text3744-1-2-2-9-7"
       y="470.52066"
       x="812.44482"
       style="font-size:12.60863781px;font-style:normal;font-weight:normal;line-height:125%;letter-spacing:0px;word-spacing:0px;fill:#000000;fill-opacity:1;stroke:none;font-family:Sans"
       xml:space="preserve"><tspan
         style="font-size:20px"
         y="470.52066"
         x="812.44482"
         id="tspan3746-4-3-86-3-2"
         sodipodi:role="line">0</tspan></text>
    <text
       transform="scale(0.96989523,1.0310392)"
       sodipodi:linespacing="125%"
       id="text3744-1-2-2-9-37"
       y="470.5206"
       x="847.28906"
       style="font-size:12.60863781px;font-style:normal;font-weight:normal;line-height:125%;letter-spacing:0px;word-spacing:0px;fill:#000000;fill-opacity:1;stroke:none;font-family:Sans"
       xml:space="preserve"><tspan
         style="font-size:20px"
         y="470.5206"
         x="847.28906"
         id="tspan3746-4-3-86-3-85"
         sodipodi:role="line">0</tspan></text>
    <flowRoot
       xml:space="preserve"
       id="flowRoot18568-5-9-7-1-1-2-4-7-8"
       style="font-size:20px;font-style:normal;font-variant:normal;font-weight:normal;font-stretch:normal;text-align:start;line-height:120.00000477%;writing-mode:lr-tb;text-anchor:start;fill:#000000;fill-opacity:1;stroke:none;font-family:Arial;-inkscape-font-specification:Arial"
       transform="translate(381.16138,379.38867)"><flowRegion
         id="flowRegion18570-1-5-4-7-7-1-05-7-5"><rect
           id="rect18572-7-4-0-4-1-6-4-9-8"
           width="53.941124"
           height="46.92749"
           x="223.44574"
           y="15.816242"
           style="fill:#000000;fill-opacity:1" /></flowRegion><flowPara
         style="font-size:22px;font-weight:normal;line-height:121.00000381%;-inkscape-font-specification:Arial"
         id="flowPara18574-1-3-9-0-1-8-7-5-7">A</flowPara></flowRoot>    <flowRoot
       xml:space="preserve"
       id="flowRoot18568-5-9-7-1-1-2-4-7-8-3"
       style="font-size:20px;font-style:normal;font-variant:normal;font-weight:normal;font-stretch:normal;text-align:start;line-height:120.00000477%;writing-mode:lr-tb;text-anchor:start;fill:#000000;fill-opacity:1;stroke:none;font-family:Arial;-inkscape-font-specification:Arial"
       transform="translate(463.7935,378.92717)"><flowRegion
         id="flowRegion18570-1-5-4-7-7-1-05-7-5-3"><rect
           id="rect18572-7-4-0-4-1-6-4-9-8-1"
           width="53.941124"
           height="46.92749"
           x="223.44574"
           y="15.816242"
           style="fill:#000000;fill-opacity:1" /></flowRegion><flowPara
         style="font-size:22px;font-weight:normal;line-height:121.00000381%;-inkscape-font-specification:Arial"
         id="flowPara18574-1-3-9-0-1-8-7-5-7-0">C</flowPara></flowRoot>    <flowRoot
       xml:space="preserve"
       id="flowRoot18568-5-9-7-1-1-2-4-7-8-8"
       style="font-size:20px;font-style:normal;font-variant:normal;font-weight:normal;font-stretch:normal;text-align:start;line-height:120.00000477%;writing-mode:lr-tb;text-anchor:start;fill:#000000;fill-opacity:1;stroke:none;font-family:Arial;-inkscape-font-specification:Arial"
       transform="matrix(0.25300642,8.9993608,-11.8333,0.02971993,848.26029,-1595.9613)"><flowRegion
         id="flowRegion18570-1-5-4-7-7-1-05-7-5-1"><rect
           id="rect18572-7-4-0-4-1-6-4-9-8-0"
           width="183.82867"
           height="166.63576"
           x="223.44574"
           y="15.816242"
           style="fill:#000000;fill-opacity:1" /></flowRegion><flowPara
         style="font-size:16.14299583px;font-weight:normal;line-height:121.00000381%;fill:#ff0000;-inkscape-font-specification:Arial"
         id="flowPara18574-1-3-9-0-1-8-7-5-7-9">{</flowPara></flowRoot>    <flowRoot
       xml:space="preserve"
       id="flowRoot18568-5-9-7-1-1-2-4-7-8-8-2"
       style="font-size:20px;font-style:normal;font-variant:normal;font-weight:normal;font-stretch:normal;text-align:start;line-height:120.00000477%;writing-mode:lr-tb;text-anchor:start;fill:#0000ff;fill-opacity:1;stroke:none;font-family:Arial;-inkscape-font-specification:Arial"
       transform="matrix(0.16888361,8.9997446,-9.4369156,0.00825933,889.24306,-1596.4551)"><flowRegion
         id="flowRegion18570-1-5-4-7-7-1-05-7-5-1-4"><rect
           id="rect18572-7-4-0-4-1-6-4-9-8-0-9"
           width="183.82867"
           height="166.63576"
           x="223.44574"
           y="15.816242"
           style="fill:#0000ff;fill-opacity:1" /></flowRegion><flowPara
         style="font-size:16.14299583px;font-weight:normal;line-height:121.00000381%;fill:#0000ff;-inkscape-font-specification:Arial"
         id="flowPara18574-1-3-9-0-1-8-7-5-7-9-1">{</flowPara></flowRoot>    <g
       ns0:preamble=""
       ns0:text="$\\hat{G}[B1,1]$"
       word-spacing="normal"
       letter-spacing="normal"
       font-size-adjust="none"
       font-stretch="normal"
       font-weight="normal"
       font-variant="normal"
       font-style="normal"
       stroke-miterlimit="10.433"
       xml:space="preserve"
       transform="matrix(2.0456961,0,0,-2.0646404,-44.898035,1875.6331)"
       id="g3586"
       style="font-style:normal;font-variant:normal;font-weight:normal;font-stretch:normal;letter-spacing:normal;word-spacing:normal;text-anchor:start;fill:none;stroke:#000000;stroke-linecap:butt;stroke-linejoin:miter;stroke-miterlimit:10.43299961;stroke-opacity:1;stroke-dasharray:none;stroke-dashoffset:0">
<polygon
   id="polygon3588"
   points="229.51,715.2 228.18,716.55 226.84,715.2 227.02,715.02 228.18,716.03 229.33,715.02 "
   style="fill:#000000;stroke-width:0" />
<path
   id="path3590"
   d="m 231.01,714.04 0,0 0,0.01 0,0 0,0 0,0.01 0,0 -0.01,0.01 0,0 0,0 0,0.01 0,0 0,0.01 -0.01,0 0,0 0,0.01 0,0 -0.01,0.01 0,0 0,0 -0.01,0.01 0,0 -0.01,0 0,0.01 -0.01,0 0,0 -0.01,0 0,0 0,0.01 0,0 -0.01,0 0,0 0,0 -0.01,0 0,0 -0.01,0 0,0 0,0 -0.01,0 0,0 c -0.03,0 -0.04,-0.01 -0.15,-0.12 l -0.7,-0.76 c -0.09,0.14 -0.55,0.88 -1.65,0.88 -2.23,0 -4.47,-2.2 -4.47,-4.51 0,-1.58 1.11,-2.72 2.72,-2.72 0.44,0 0.89,0.09 1.25,0.24 0.5,0.19 0.69,0.4 0.86,0.6 0.09,-0.25 0.35,-0.61 0.45,-0.61 0.05,0 0.07,0.02 0.07,0.03 0.02,0.03 0.12,0.4 0.17,0.61 l 0.19,0.77 c 0.04,0.17 0.09,0.34 0.13,0.51 0.11,0.44 0.12,0.46 0.69,0.47 0.05,0 0.16,0.01 0.16,0.2 0,0.07 -0.05,0.11 -0.13,0.11 -0.23,0 -0.82,-0.03 -1.05,-0.03 -0.31,0 -1.08,0.03 -1.39,0.03 -0.09,0 -0.21,0 -0.21,-0.2 0,-0.11 0.08,-0.11 0.3,-0.11 0.01,0 0.3,0 0.52,-0.02 0.27,-0.03 0.31,-0.06 0.31,-0.19 0,-0.09 -0.1,-0.53 -0.21,-0.9 -0.27,-1.1 -1.57,-1.2 -1.92,-1.2 -0.96,0 -2,0.56 -2,2.08 0,0.31 0.1,1.96 1.14,3.25 0.54,0.68 1.51,1.28 2.5,1.28 1.01,0 1.6,-0.76 1.6,-1.92 0,-0.4 -0.03,-0.41 -0.03,-0.5 0,-0.11 0.11,-0.11 0.15,-0.11 0.13,0 0.13,0.03 0.18,0.2 z"
   inkscape:connector-curvature="0"
   style="fill:#000000;stroke-width:0" />
<polygon
   id="polygon3592"
   points="233.81,714.59 232.44,714.59 232.44,704.64 233.81,704.64 233.81,705.03 232.84,705.03 232.84,714.19 233.81,714.19 "
   style="fill:#000000;stroke-width:0" />
<path
   id="path3594"
   d="m 235.63,707.9 -0.01,-0.03 -0.01,-0.04 -0.01,-0.03 -0.01,-0.03 -0.01,-0.03 -0.01,-0.03 -0.01,-0.02 -0.01,-0.03 -0.01,-0.02 -0.01,-0.02 -0.01,-0.02 -0.02,-0.02 -0.01,-0.01 -0.02,-0.02 -0.02,-0.01 -0.02,-0.02 -0.02,-0.01 -0.03,-0.01 -0.02,-0.01 -0.03,-0.01 -0.03,-0.01 -0.02,0 -0.02,-0.01 -0.02,0 -0.02,0 -0.02,0 -0.02,-0.01 -0.02,0 -0.02,0 -0.03,0 -0.02,-0.01 -0.03,0 -0.02,0 -0.03,0 -0.03,0 -0.03,0 -0.03,0 -0.03,0 -0.03,0 -0.03,-0.01 -0.04,0 -0.03,0 -0.04,0 c -0.17,0 -0.27,0 -0.27,-0.2 0,-0.1 0.09,-0.1 0.27,-0.1 h 3.56 c 1.57,0 2.75,1.17 2.75,2.15 0,0.71 -0.58,1.29 -1.54,1.4 1.03,0.19 2.08,0.92 2.08,1.87 0,0.74 -0.66,1.37 -1.86,1.37 l -0.14,-0.31 c 0.88,0 1.09,-0.58 1.09,-1.02 0,-0.88 -0.86,-1.82 -2.07,-1.82 h -1.46 l -0.06,-0.22 h 1.89 c 0.95,0 1.14,-0.74 1.14,-1.17 0,-0.98 -0.88,-1.95 -2.06,-1.95 h -1.36 c -0.14,0 -0.16,0 -0.22,0.01 -0.09,0.01 -0.12,0.02 -0.12,0.1 0,0.03 0,0.05 0.05,0.23 l 0.68,2.78 0.06,0.22 0.62,2.47 c 0.09,0.34 0.11,0.37 0.54,0.37 h 1.28 l 0.14,0.31 h -3.34 c -0.19,0 -0.29,0 -0.29,-0.2 0,-0.11 0.09,-0.11 0.28,-0.11 0.02,0 0.21,0 0.37,-0.02 0.18,-0.02 0.27,-0.03 0.27,-0.16 0,-0.03 -0.01,-0.07 -0.04,-0.18 z"
   inkscape:connector-curvature="0"
   style="fill:#000000;stroke-width:0" />
<path
   id="path3596"
   d="m 245.02,713.49 0,0.02 0,0.01 0,0.01 0,0.01 0,0.01 0,0.01 0,0.01 0,0 0,0.01 0,0.01 0,0.01 0,0.01 0,0 0,0.01 0,0.01 0,0.01 0,0 -0.01,0.01 0,0.01 0,0.01 0,0.01 -0.01,0.01 0,0.01 0,0.01 -0.01,0 0,0.01 -0.01,0 -0.01,0.01 -0.01,0 -0.01,0.01 0,0 0,0 -0.01,0 -0.01,0 0,0.01 -0.01,0 0,0 -0.01,0 -0.01,0 0,0 -0.01,0 -0.01,0 -0.01,0 0,0 -0.01,0 -0.01,0 -0.01,0 -0.01,0 -0.01,0 -0.01,0 -0.01,0 -0.01,0 c -0.62,-0.63 -1.5,-0.63 -1.81,-0.63 v -0.31 c 0.2,0 0.78,0 1.3,0.26 v -5.16 c 0,-0.36 -0.03,-0.48 -0.93,-0.48 h -0.31 v -0.3 c 0.34,0.03 1.21,0.03 1.61,0.03 0.4,0 1.27,0 1.62,-0.03 v 0.3 h -0.32 c -0.9,0 -0.93,0.11 -0.93,0.48 z"
   inkscape:connector-curvature="0"
   style="fill:#000000;stroke-width:0" />
<path
   id="path3598"
   d="m 249.1,707.14 -0.01,0.06 0,0.06 0,0.05 -0.01,0.06 0,0.05 -0.01,0.06 -0.01,0.05 -0.01,0.05 -0.01,0.04 -0.01,0.05 -0.02,0.04 -0.01,0.04 -0.02,0.04 -0.02,0.04 -0.02,0.04 -0.02,0.03 -0.02,0.04 -0.02,0.03 -0.03,0.03 -0.02,0.02 -0.03,0.03 -0.02,0.02 -0.03,0.02 -0.03,0.02 -0.03,0.02 -0.03,0.01 -0.03,0.01 -0.03,0.01 -0.04,0.01 -0.03,0.01 -0.04,0 -0.03,0 c -0.33,0 -0.53,-0.25 -0.53,-0.53 0,-0.27 0.2,-0.52 0.53,-0.52 0.12,0 0.25,0.03 0.35,0.12 0.03,0.02 0.04,0.03 0.04,0.03 0.02,0 0.03,-0.01 0.03,-0.14 0,-0.74 -0.35,-1.34 -0.68,-1.67 -0.11,-0.11 -0.11,-0.13 -0.11,-0.16 0,-0.07 0.05,-0.11 0.1,-0.11 0.11,0 0.91,0.77 0.91,1.94 z"
   inkscape:connector-curvature="0"
   style="fill:#000000;stroke-width:0" />
<path
   id="path3600"
   d="m 254.43,713.49 0,0.02 0,0.01 0,0.01 0,0.01 0,0.01 0,0.01 0,0.01 0,0 0,0.01 0,0.01 0,0.01 0,0.01 0,0 0,0.01 0,0.01 0,0.01 -0.01,0 0,0.01 0,0.01 0,0.01 0,0.01 -0.01,0.01 0,0.01 0,0.01 -0.01,0 -0.01,0.01 0,0 -0.01,0.01 -0.01,0 -0.01,0.01 0,0 -0.01,0 0,0 -0.01,0 0,0.01 -0.01,0 0,0 -0.01,0 -0.01,0 0,0 -0.01,0 -0.01,0 -0.01,0 -0.01,0 0,0 -0.01,0 -0.01,0 -0.01,0 -0.01,0 -0.01,0 -0.01,0 -0.01,0 c -0.62,-0.63 -1.5,-0.63 -1.82,-0.63 v -0.31 c 0.21,0 0.79,0 1.31,0.26 v -5.16 c 0,-0.36 -0.03,-0.48 -0.93,-0.48 h -0.31 v -0.3 c 0.34,0.03 1.21,0.03 1.61,0.03 0.4,0 1.27,0 1.62,-0.03 v 0.3 h -0.32 c -0.9,0 -0.93,0.11 -0.93,0.48 z"
   inkscape:connector-curvature="0"
   style="fill:#000000;stroke-width:0" />
<polygon
   id="polygon3602"
   points="256.7,705.03 256.7,704.64 258.06,704.64 258.06,714.59 256.7,714.59 256.7,714.19 257.67,714.19 257.67,705.03 "
   style="fill:#000000;stroke-width:0" />
</g>    <flowRoot
       xml:space="preserve"
       id="flowRoot18568-5-9-7-1-1-2-4-7-8-9"
       style="font-size:20px;font-style:normal;font-variant:normal;font-weight:normal;font-stretch:normal;text-align:start;line-height:120.00000477%;writing-mode:lr-tb;text-anchor:start;fill:#000000;fill-opacity:1;stroke:none;font-family:Arial;-inkscape-font-specification:Arial"
       transform="translate(542.72559,419.86163)"><flowRegion
         id="flowRegion18570-1-5-4-7-7-1-05-7-5-4"><rect
           id="rect18572-7-4-0-4-1-6-4-9-8-8"
           width="53.941124"
           height="46.92749"
           x="223.44574"
           y="15.816242"
           style="fill:#000000;fill-opacity:1" /></flowRegion><flowPara
         style="font-size:22px;font-weight:normal;line-height:121.00000381%;-inkscape-font-specification:Arial"
         id="flowPara18574-1-3-9-0-1-8-7-5-7-8" /></flowRoot>  </g>
</svg>
