<?xml version="1.0" encoding="UTF-8" standalone="no"?>
<!-- Created with Inkscape (http://www.inkscape.org/) -->

<svg
   xmlns:ns0="http://www.iki.fi/pav/software/textext/"
   xmlns:dc="http://purl.org/dc/elements/1.1/"
   xmlns:cc="http://creativecommons.org/ns#"
   xmlns:rdf="http://www.w3.org/1999/02/22-rdf-syntax-ns#"
   xmlns:svg="http://www.w3.org/2000/svg"
   xmlns="http://www.w3.org/2000/svg"
   xmlns:sodipodi="http://sodipodi.sourceforge.net/DTD/sodipodi-0.dtd"
   xmlns:inkscape="http://www.inkscape.org/namespaces/inkscape"
   width="297mm"
   height="210mm"
   id="svg2991"
   version="1.1"
   inkscape:version="0.48.4 r9939"
   sodipodi:docname="graph-code.svg">
  <sodipodi:namedview
     inkscape:document-units="mm"
     pagecolor="#ffffff"
     bordercolor="#666666"
     borderopacity="1.0"
     inkscape:pageopacity="0.0"
     inkscape:pageshadow="2"
     inkscape:zoom="0.86831675"
     inkscape:cx="444.93613"
     inkscape:cy="410.07085"
     inkscape:current-layer="layer1"
     id="namedview2995"
     showgrid="false"
     inkscape:window-width="1366"
     inkscape:window-height="706"
     inkscape:window-x="-8"
     inkscape:window-y="-8"
     inkscape:window-maximized="1"
     showguides="true"
     inkscape:guide-bbox="true">
    <sodipodi:guide
       orientation="1,0"
       position="-175.05133,608.07303"
       id="guide3887" />
  </sodipodi:namedview>
  <defs
     id="defs2993" />
  <metadata
     id="metadata2997">
    <rdf:RDF>
      <cc:Work
         rdf:about="">
        <dc:format>image/svg+xml</dc:format>
        <dc:type
           rdf:resource="http://purl.org/dc/dcmitype/StillImage" />
        <dc:title />
      </cc:Work>
    </rdf:RDF>
  </metadata>
  <g
     id="layer1"
     inkscape:groupmode="layer"
     inkscape:label="Layer 1">
    <text
       sodipodi:linespacing="80.000001%"
       id="text3136"
       y="789.69763"
       x="52.117889"
       style="font-size:32px;font-style:normal;font-variant:normal;font-weight:normal;font-stretch:normal;text-align:start;line-height:80.00000119%;letter-spacing:0px;word-spacing:0px;writing-mode:lr-tb;text-anchor:start;fill:#000000;fill-opacity:1;stroke:none;font-family:Times New Roman;-inkscape-font-specification:Times New Roman"
       xml:space="preserve"><tspan
         y="789.69763"
         x="52.117889"
         id="tspan3138"
         sodipodi:role="line" /></text>
    <path
       sodipodi:nodetypes="cc"
       style="fill:none;stroke:#000000;stroke-width:0.8277536;stroke-linecap:butt;stroke-linejoin:miter;stroke-miterlimit:4;stroke-opacity:1;stroke-dasharray:none;marker-end:none"
       d="M 104.34924,391.47424 C 83.542059,433.35657 83.163541,434.11845 83.163541,434.11845"
       id="path2741-0-1-7-3-3"
       inkscape:connector-curvature="0" />
    <text
       sodipodi:linespacing="80.000001%"
       id="text3287"
       y="238.20058"
       x="245.43864"
       style="font-size:24.06615067px;font-style:normal;font-variant:normal;font-weight:normal;font-stretch:normal;text-align:start;line-height:80.00000119%;letter-spacing:0px;word-spacing:0px;writing-mode:lr-tb;text-anchor:start;fill:#000000;fill-opacity:1;stroke:none;font-family:Times New Roman;-inkscape-font-specification:Times New Roman"
       xml:space="preserve"
       transform="scale(1.0012827,0.99871896)"><tspan
         style="font-size:21.05788231px;font-style:italic;font-weight:normal;-inkscape-font-specification:'Times New Roman, Italic'"
         y="238.20058"
         x="245.43864"
         id="tspan3289"
         sodipodi:role="line">G <tspan
   style="font-style:normal;-inkscape-font-specification:'Times New Roman,'"
   id="tspan5131">(            )</tspan></tspan></text>
    <path
       style="fill:none;stroke:#000000;stroke-width:0.9776873;stroke-linecap:butt;stroke-linejoin:miter;stroke-miterlimit:4;stroke-opacity:1;stroke-dasharray:none"
       d="m 137.13519,296.98337 c 0,10.66137 -9.15686,19.31409 -20.43944,19.31409 -11.28257,0 -20.439418,-8.65272 -20.439418,-19.31409 0,-10.66139 9.156848,-19.3141 20.439418,-19.3141 11.28258,0 20.43944,8.65271 20.43944,19.3141 z"
       id="path18552-5-7-1-9"
       inkscape:connector-curvature="0" />
    <path
       sodipodi:nodetypes="cc"
       style="fill:none;stroke:#000000;stroke-width:1.18426406;stroke-linecap:butt;stroke-linejoin:miter;stroke-miterlimit:4;stroke-opacity:1;stroke-dasharray:none;marker-end:none"
       d="m 116.02983,316.33477 c 0.005,39.7358 0.005,40.46064 0.005,40.46064"
       id="path2741-0-1-7-3-6"
       inkscape:connector-curvature="0" />
    <text
       sodipodi:linespacing="80.000001%"
       id="text3287-7"
       y="237.02539"
       x="106.57384"
       style="font-size:24.06615067px;font-style:normal;font-variant:normal;font-weight:normal;font-stretch:normal;text-align:start;line-height:80.00000119%;letter-spacing:0px;word-spacing:0px;writing-mode:lr-tb;text-anchor:start;fill:#000000;fill-opacity:1;stroke:none;font-family:Times New Roman;-inkscape-font-specification:Times New Roman"
       xml:space="preserve"
       transform="scale(1.0012827,0.99871896)"><tspan
         style="font-size:21.05788231px;font-style:italic;-inkscape-font-specification:'Times New Roman, Italic'"
         y="237.02539"
         x="106.57384"
         id="tspan3289-7"
         sodipodi:role="line">P</tspan></text>
    <flowRoot
       transform="matrix(0.75303186,0,0,0.75110376,32.800792,207.36982)"
       style="font-size:32px;font-style:normal;font-variant:normal;font-weight:normal;font-stretch:normal;text-align:start;line-height:80.00000119%;letter-spacing:0px;word-spacing:0px;writing-mode:lr-tb;text-anchor:start;fill:#000000;fill-opacity:1;stroke:none;font-family:Times New Roman;-inkscape-font-specification:Times New Roman"
       id="flowRoot13924-4-4-2-6"
       xml:space="preserve"><flowRegion
         id="flowRegion13926-1-7-8-2"><rect
           y="72.362183"
           x="90"
           height="40"
           width="87.14286"
           id="rect13928-2-8-2-14" /></flowRegion><flowPara
         style="font-size:20px"
         id="flowPara13930-0-3-5-6">[1,+   ]</flowPara></flowRoot>    <flowRoot
       xml:space="preserve"
       id="flowRoot18568-5-9-7-1"
       style="font-size:20px;font-style:normal;font-variant:normal;font-weight:normal;font-stretch:normal;text-align:start;line-height:120.00000477%;writing-mode:lr-tb;text-anchor:start;fill:#000000;fill-opacity:1;stroke:none;font-family:Arial;-inkscape-font-specification:Arial"
       transform="matrix(0.75303186,0,0,0.75110376,-59.35375,273.51777)"><flowRegion
         id="flowRegion18570-1-5-4-7"><rect
           id="rect18572-7-4-0-4"
           width="53.941124"
           height="46.92749"
           x="223.44574"
           y="15.816242"
           style="fill:#000000;fill-opacity:1" /></flowRegion><flowPara
         style="font-size:32px;line-height:121.00000381%"
         id="flowPara18574-1-3-9-0">A</flowPara></flowRoot>    <path
       style="fill:none;stroke:#000000;stroke-width:0.9776873;stroke-linecap:butt;stroke-linejoin:miter;stroke-miterlimit:4;stroke-opacity:1;stroke-dasharray:none"
       d="m 136.84757,375.68073 c 0,10.66138 -9.15686,19.31409 -20.43944,19.31409 -11.28257,0 -20.439418,-8.65271 -20.439418,-19.31409 0,-10.66139 9.156848,-19.3141 20.439418,-19.3141 11.28258,0 20.43944,8.65271 20.43944,19.3141 z"
       id="path18552-5-7-1-9-8"
       inkscape:connector-curvature="0" />
    <flowRoot
       xml:space="preserve"
       id="flowRoot18568-5-9-7-1-4"
       style="font-size:20px;font-style:normal;font-variant:normal;font-weight:normal;font-stretch:normal;text-align:start;line-height:120.00000477%;writing-mode:lr-tb;text-anchor:start;fill:#000000;fill-opacity:1;stroke:none;font-family:Arial;-inkscape-font-specification:Arial"
       transform="matrix(0.75303186,0,0,0.75110376,-59.641361,352.21514)"><flowRegion
         id="flowRegion18570-1-5-4-7-3"><rect
           id="rect18572-7-4-0-4-12"
           width="53.941124"
           height="46.92749"
           x="223.44574"
           y="15.816242"
           style="fill:#000000;fill-opacity:1" /></flowRegion><flowPara
         style="font-size:32px;line-height:121.00000381%"
         id="flowPara18574-1-3-9-0-3">B</flowPara></flowRoot>    <path
       sodipodi:nodetypes="cc"
       style="fill:none;stroke:#000000;stroke-width:0.89298826;stroke-linecap:butt;stroke-linejoin:miter;stroke-miterlimit:4;stroke-opacity:1;stroke-dasharray:none;marker-end:none"
       d="m 128.72063,390.45769 c 23.28052,43.56532 23.70403,44.35782 23.70403,44.35782"
       id="path2741-0-1-7-3-3-7"
       inkscape:connector-curvature="0" />
    <path
       style="fill:none;stroke:#000000;stroke-width:0.9776873;stroke-linecap:butt;stroke-linejoin:miter;stroke-miterlimit:4;stroke-opacity:1;stroke-dasharray:none"
       d="m 100.77293,453.20223 c 0,10.66138 -9.156863,19.31409 -20.439438,19.31409 -11.282564,0 -20.439416,-8.65271 -20.439416,-19.31409 0,-10.66138 9.156852,-19.3141 20.439416,-19.3141 11.282575,0 20.439438,8.65272 20.439438,19.3141 z"
       id="path18552-5-7-1-9-8-93"
       inkscape:connector-curvature="0" />
    <flowRoot
       xml:space="preserve"
       id="flowRoot18568-5-9-7-1-4-1"
       style="font-size:20px;font-style:normal;font-variant:normal;font-weight:normal;font-stretch:normal;text-align:start;line-height:120.00000477%;writing-mode:lr-tb;text-anchor:start;fill:#000000;fill-opacity:1;stroke:none;font-family:Arial;-inkscape-font-specification:Arial"
       transform="matrix(0.75303186,0,0,0.75110376,-95.716,429.73664)"><flowRegion
         id="flowRegion18570-1-5-4-7-3-9"><rect
           id="rect18572-7-4-0-4-12-8"
           width="53.941124"
           height="46.92749"
           x="223.44574"
           y="15.816242"
           style="fill:#000000;fill-opacity:1" /></flowRegion><flowPara
         style="font-size:32px;line-height:121.00000381%"
         id="flowPara18574-1-3-9-0-3-6">C</flowPara></flowRoot>    <path
       style="fill:none;stroke:#000000;stroke-width:0.9776873;stroke-linecap:butt;stroke-linejoin:miter;stroke-miterlimit:4;stroke-opacity:1;stroke-dasharray:none"
       d="m 176.96233,454.01476 c 0,10.66138 -9.15686,19.31409 -20.43944,19.31409 -11.28257,0 -20.43942,-8.65271 -20.43942,-19.31409 0,-10.66138 9.15685,-19.3141 20.43942,-19.3141 11.28258,0 20.43944,8.65272 20.43944,19.3141 z"
       id="path18552-5-7-1-9-8-5"
       inkscape:connector-curvature="0" />
    <flowRoot
       xml:space="preserve"
       id="flowRoot18568-5-9-7-1-4-0"
       style="font-size:20px;font-style:normal;font-variant:normal;font-weight:normal;font-stretch:normal;text-align:start;line-height:120.00000477%;writing-mode:lr-tb;text-anchor:start;fill:#000000;fill-opacity:1;stroke:none;font-family:Arial;-inkscape-font-specification:Arial"
       transform="matrix(0.75303186,0,0,0.75110376,-19.526604,430.54917)"><flowRegion
         id="flowRegion18570-1-5-4-7-3-2"><rect
           id="rect18572-7-4-0-4-12-86"
           width="53.941124"
           height="46.92749"
           x="223.44574"
           y="15.816242"
           style="fill:#000000;fill-opacity:1" /></flowRegion><flowPara
         style="font-size:32px;line-height:121.00000381%"
         id="flowPara18574-1-3-9-0-3-0">C</flowPara></flowRoot>    <path
       style="fill:none;stroke:#000000;stroke-width:0.9776873;stroke-linecap:butt;stroke-linejoin:miter;stroke-miterlimit:4;stroke-opacity:1;stroke-dasharray:none"
       d="m 275.47614,297.96389 c 0,10.66138 -9.15686,19.31409 -20.43944,19.31409 -11.28256,0 -20.43942,-8.65271 -20.43942,-19.31409 0,-10.66139 9.15686,-19.3141 20.43942,-19.3141 11.28258,0 20.43944,8.65271 20.43944,19.3141 z"
       id="path18552-5-7-1-9-4"
       inkscape:connector-curvature="0" />
    <path
       sodipodi:nodetypes="cc"
       style="fill:none;stroke:#000000;stroke-width:1.18426406;stroke-linecap:butt;stroke-linejoin:miter;stroke-miterlimit:4;stroke-opacity:1;stroke-dasharray:none;marker-end:none"
       d="m 254.37079,317.3153 c 0.005,39.73579 0.005,40.46063 0.005,40.46063"
       id="path2741-0-1-7-3-6-8"
       inkscape:connector-curvature="0" />
    <flowRoot
       xml:space="preserve"
       id="flowRoot18568-5-9-7-1-1"
       style="font-size:20px;font-style:normal;font-variant:normal;font-weight:normal;font-stretch:normal;text-align:start;line-height:120.00000477%;writing-mode:lr-tb;text-anchor:start;fill:#000000;fill-opacity:1;stroke:none;font-family:Arial;-inkscape-font-specification:Arial"
       transform="matrix(0.75303186,0,0,0.75110376,76.534301,276.33326)"><flowRegion
         id="flowRegion18570-1-5-4-7-7"><rect
           id="rect18572-7-4-0-4-1"
           width="53.941124"
           height="46.92749"
           x="223.44574"
           y="15.816242"
           style="fill:#000000;fill-opacity:1" /></flowRegion><flowPara
         style="font-size:28px;font-weight:normal;line-height:121.00000381%;-inkscape-font-specification:Arial"
         id="flowPara18574-1-3-9-0-1">A1</flowPara></flowRoot>    <path
       style="fill:none;stroke:#000000;stroke-width:0.9776873;stroke-linecap:butt;stroke-linejoin:miter;stroke-miterlimit:4;stroke-opacity:1;stroke-dasharray:none"
       d="m 275.18852,376.66125 c 0,10.66138 -9.15686,19.31409 -20.43944,19.31409 -11.28256,0 -20.43942,-8.65271 -20.43942,-19.31409 0,-10.66138 9.15686,-19.3141 20.43942,-19.3141 11.28258,0 20.43944,8.65272 20.43944,19.3141 z"
       id="path18552-5-7-1-9-8-52"
       inkscape:connector-curvature="0" />
    <flowRoot
       xml:space="preserve"
       id="flowRoot18568-5-9-7-1-4-32"
       style="font-size:20px;font-style:normal;font-variant:normal;font-weight:normal;font-stretch:normal;text-align:start;line-height:120.00000477%;writing-mode:lr-tb;text-anchor:start;fill:#000000;fill-opacity:1;stroke:none;font-family:Arial;-inkscape-font-specification:Arial"
       transform="matrix(0.75303186,0,0,0.75110376,76.246688,354.41896)"><flowRegion
         id="flowRegion18570-1-5-4-7-3-21"><rect
           id="rect18572-7-4-0-4-12-6"
           width="53.941124"
           height="46.92749"
           x="223.44574"
           y="15.816242"
           style="fill:#000000;fill-opacity:1" /></flowRegion><flowPara
         style="font-size:28px;line-height:121.00000381%"
         id="flowPara18574-1-3-9-0-3-8">B1</flowPara></flowRoot>    <path
       sodipodi:nodetypes="cc"
       style="fill:none;stroke:#000000;stroke-width:1.03127956;stroke-linecap:butt;stroke-linejoin:miter;stroke-miterlimit:4;stroke-opacity:1;stroke-dasharray:none;marker-end:none"
       d="m 267.26402,391.64014 c 45.76909,46.77305 46.60171,47.6239 46.60171,47.6239"
       id="path2741-0-1-7-3-3-7-5"
       inkscape:connector-curvature="0" />
    <path
       style="fill:none;stroke:#000000;stroke-width:0.9776873;stroke-linecap:butt;stroke-linejoin:miter;stroke-miterlimit:4;stroke-opacity:1;stroke-dasharray:none"
       d="m 275.25941,455.68496 c 0,10.66138 -9.15686,19.31409 -20.43944,19.31409 -11.28256,0 -20.43942,-8.65271 -20.43942,-19.31409 0,-10.66138 9.15686,-19.3141 20.43942,-19.3141 11.28258,0 20.43944,8.65272 20.43944,19.3141 z"
       id="path18552-5-7-1-9-8-93-7"
       inkscape:connector-curvature="0" />
    <path
       style="fill:none;stroke:#000000;stroke-width:0.9776873;stroke-linecap:butt;stroke-linejoin:miter;stroke-miterlimit:4;stroke-opacity:1;stroke-dasharray:none"
       d="m 346.93062,454.99528 c 0,10.66138 -9.15686,19.31409 -20.43944,19.31409 -11.28257,0 -20.43942,-8.65271 -20.43942,-19.31409 0,-10.66138 9.15685,-19.3141 20.43942,-19.3141 11.28258,0 20.43944,8.65272 20.43944,19.3141 z"
       id="path18552-5-7-1-9-8-5-2"
       inkscape:connector-curvature="0" />
    <path
       sodipodi:nodetypes="cc"
       style="fill:none;stroke:#000000;stroke-width:1.18426406;stroke-linecap:butt;stroke-linejoin:miter;stroke-miterlimit:4;stroke-opacity:1;stroke-dasharray:none;marker-end:none"
       d="m 254.78422,395.74498 c 0.005,39.73579 0.005,40.46064 0.005,40.46064"
       id="path2741-0-1-7-3-6-8-3"
       inkscape:connector-curvature="0" />
    <path
       style="fill:none;stroke:#000000;stroke-width:0.9776873;stroke-linecap:butt;stroke-linejoin:miter;stroke-miterlimit:4;stroke-opacity:1;stroke-dasharray:none"
       d="m 346.12345,297.74099 c 0,10.66138 -9.15686,19.31409 -20.43944,19.31409 -11.28256,0 -20.43942,-8.65271 -20.43942,-19.31409 0,-10.66138 9.15686,-19.3141 20.43942,-19.3141 11.28258,0 20.43944,8.65272 20.43944,19.3141 z"
       id="path18552-5-7-1-9-4-7"
       inkscape:connector-curvature="0" />
    <path
       sodipodi:nodetypes="cc"
       style="fill:none;stroke:#000000;stroke-width:1.18426406;stroke-linecap:butt;stroke-linejoin:miter;stroke-miterlimit:4;stroke-opacity:1;stroke-dasharray:none;marker-end:none"
       d="m 325.0181,317.0924 c 0.005,39.73579 0.005,40.46064 0.005,40.46064"
       id="path2741-0-1-7-3-6-8-4"
       inkscape:connector-curvature="0" />
    <path
       style="fill:none;stroke:#000000;stroke-width:0.9776873;stroke-linecap:butt;stroke-linejoin:miter;stroke-miterlimit:4;stroke-opacity:1;stroke-dasharray:none"
       d="m 345.83583,376.43835 c 0,10.66138 -9.15686,19.3141 -20.43944,19.3141 -11.28256,0 -20.43942,-8.65272 -20.43942,-19.3141 0,-10.66138 9.15686,-19.3141 20.43942,-19.3141 11.28258,0 20.43944,8.65272 20.43944,19.3141 z"
       id="path18552-5-7-1-9-8-52-3"
       inkscape:connector-curvature="0" />
    <path
       sodipodi:nodetypes="cc"
       style="fill:none;stroke:#000000;stroke-width:1.18426406;stroke-linecap:butt;stroke-linejoin:miter;stroke-miterlimit:4;stroke-opacity:1;stroke-dasharray:none;marker-end:none"
       d="m 325.43153,395.52208 c 0.005,39.73579 0.005,40.46064 0.005,40.46064"
       id="path2741-0-1-7-3-6-8-3-5"
       inkscape:connector-curvature="0" />
    <flowRoot
       xml:space="preserve"
       id="flowRoot18568-5-9-7-1-1-0"
       style="font-size:20px;font-style:normal;font-variant:normal;font-weight:normal;font-stretch:normal;text-align:start;line-height:120.00000477%;writing-mode:lr-tb;text-anchor:start;fill:#000000;fill-opacity:1;stroke:none;font-family:Arial;-inkscape-font-specification:Arial"
       transform="matrix(0.75303186,0,0,0.75110376,144.87114,275.98478)"><flowRegion
         id="flowRegion18570-1-5-4-7-7-2"><rect
           id="rect18572-7-4-0-4-1-8"
           width="53.941124"
           height="46.92749"
           x="223.44574"
           y="15.816242"
           style="fill:#000000;fill-opacity:1" /></flowRegion><flowPara
         style="font-size:28px;font-weight:normal;line-height:121.00000381%;-inkscape-font-specification:Arial"
         id="flowPara18574-1-3-9-0-1-6">A2</flowPara></flowRoot>    <flowRoot
       xml:space="preserve"
       id="flowRoot18568-5-9-7-1-4-32-0"
       style="font-size:20px;font-style:normal;font-variant:normal;font-weight:normal;font-stretch:normal;text-align:start;line-height:120.00000477%;writing-mode:lr-tb;text-anchor:start;fill:#000000;fill-opacity:1;stroke:none;font-family:Arial;-inkscape-font-specification:Arial"
       transform="matrix(0.75303186,0,0,0.75110376,144.69677,354.27667)"><flowRegion
         id="flowRegion18570-1-5-4-7-3-21-2"><rect
           id="rect18572-7-4-0-4-12-6-4"
           width="53.941124"
           height="46.92749"
           x="223.44574"
           y="15.816242"
           style="fill:#000000;fill-opacity:1" /></flowRegion><flowPara
         style="font-size:28px;line-height:121.00000381%"
         id="flowPara18574-1-3-9-0-3-8-8">B2</flowPara></flowRoot>    <flowRoot
       xml:space="preserve"
       id="flowRoot18568-5-9-7-1-4-32-6"
       style="font-size:20px;font-style:normal;font-variant:normal;font-weight:normal;font-stretch:normal;text-align:start;line-height:120.00000477%;writing-mode:lr-tb;text-anchor:start;fill:#000000;fill-opacity:1;stroke:none;font-family:Arial;-inkscape-font-specification:Arial"
       transform="matrix(0.75303186,0,0,0.75110376,74.17585,433.1802)"><flowRegion
         id="flowRegion18570-1-5-4-7-3-21-5"><rect
           id="rect18572-7-4-0-4-12-6-0"
           width="53.941124"
           height="46.92749"
           x="223.44574"
           y="15.816242"
           style="fill:#000000;fill-opacity:1" /></flowRegion><flowPara
         style="font-size:28px;line-height:121.00000381%"
         id="flowPara18574-1-3-9-0-3-8-9">C1</flowPara></flowRoot>    <flowRoot
       xml:space="preserve"
       id="flowRoot18568-5-9-7-1-4-32-6-0"
       style="font-size:20px;font-style:normal;font-variant:normal;font-weight:normal;font-stretch:normal;text-align:start;line-height:120.00000477%;writing-mode:lr-tb;text-anchor:start;fill:#000000;fill-opacity:1;stroke:none;font-family:Arial;-inkscape-font-specification:Arial"
       transform="matrix(0.75303186,0,0,0.75110376,144.98054,433.76105)"><flowRegion
         id="flowRegion18570-1-5-4-7-3-21-5-0"><rect
           id="rect18572-7-4-0-4-12-6-0-6"
           width="53.941124"
           height="46.92749"
           x="223.44574"
           y="15.816242"
           style="fill:#000000;fill-opacity:1" /></flowRegion><flowPara
         style="font-size:28px;line-height:121.00000381%"
         id="flowPara18574-1-3-9-0-3-8-9-1">C2</flowPara></flowRoot>    <g
       id="content-3"
       transform="matrix(1.19327,0,0,-1.1440574,-141.024,1076.6081)"
       xml:space="preserve"
       stroke-miterlimit="10.433"
       font-style="normal"
       font-variant="normal"
       font-weight="normal"
       font-stretch="normal"
       font-size-adjust="none"
       letter-spacing="normal"
       word-spacing="normal"
       ns0:text="$\\infty$"
       ns0:preamble=""
       style="font-style:normal;font-variant:normal;font-weight:normal;font-stretch:normal;letter-spacing:normal;word-spacing:normal;text-anchor:start;fill:none;stroke:#000000;stroke-linecap:butt;stroke-linejoin:miter;stroke-miterlimit:10.43299961;stroke-opacity:1;stroke-dasharray:none;stroke-dashoffset:0">
<path
   d="m 228.5,709.82 -0.05,0.06 -0.05,0.06 -0.04,0.06 -0.05,0.05 -0.04,0.05 -0.04,0.05 -0.03,0.05 -0.04,0.04 -0.03,0.04 -0.03,0.04 -0.04,0.04 -0.02,0.03 -0.03,0.04 -0.03,0.03 -0.03,0.03 -0.02,0.03 -0.03,0.03 -0.02,0.03 -0.03,0.02 -0.02,0.03 -0.05,0.04 -0.05,0.05 -0.04,0.04 -0.05,0.05 -0.06,0.04 -0.02,0.02 -0.03,0.03 c -0.56,0.44 -1.12,0.62 -1.63,0.62 -1.16,0 -1.92,-1.09 -1.92,-2.25 h 0.22 c 0,0.97 0.67,1.78 1.54,1.78 0.58,0 1.03,-0.42 1.24,-0.63 0.25,-0.27 0.48,-0.58 1.09,-1.36 h 0 c -0.41,-0.72 -1.15,-1.73 -2.28,-1.73 -1.05,0 -1.59,1.04 -1.59,1.94 h -0.22 c 0,-1.15 0.74,-2.25 1.88,-2.25 1.15,0 1.98,0.9 2.47,1.7 0.54,-0.68 0.65,-0.83 0.96,-1.08 0.56,-0.44 1.12,-0.62 1.63,-0.62 1.17,0 1.92,1.09 1.92,2.26 h -0.22 c 0,-0.98 -0.66,-1.79 -1.54,-1.79 -0.58,0 -1.03,0.42 -1.24,0.63 -0.25,0.27 -0.48,0.58 -1.08,1.36 h 0 c 0.4,0.72 1.14,1.73 2.27,1.73 1.06,0 1.59,-1.04 1.59,-1.93 h 0.22 c 0,1.14 -0.74,2.24 -1.88,2.24 -1.15,0 -1.98,-0.9 -2.46,-1.7 z"
   id="path4056-8"
   inkscape:connector-curvature="0"
   style="fill:#000000;stroke-width:0" />
</g>    <flowRoot
       transform="matrix(0.75303186,0,0,0.75110376,-18.139582,318.20553)"
       style="font-size:32px;font-style:normal;font-variant:normal;font-weight:normal;font-stretch:normal;text-align:start;line-height:80.00000119%;letter-spacing:0px;word-spacing:0px;writing-mode:lr-tb;text-anchor:start;fill:#000000;fill-opacity:1;stroke:none;font-family:Times New Roman;-inkscape-font-specification:Times New Roman"
       id="flowRoot13924-4-4-2-6-9"
       xml:space="preserve"><flowRegion
         id="flowRegion13926-1-7-8-2-3"><rect
           y="72.362183"
           x="90"
           height="40"
           width="87.14286"
           id="rect13928-2-8-2-14-4" /></flowRegion><flowPara
         style="font-size:20px"
         id="flowPara13930-0-3-5-6-4">[1,+   ]</flowPara></flowRoot>    <g
       id="content-3-6"
       transform="matrix(1.19327,0,0,-1.1440574,-191.96438,1187.4438)"
       xml:space="preserve"
       stroke-miterlimit="10.433"
       font-style="normal"
       font-variant="normal"
       font-weight="normal"
       font-stretch="normal"
       font-size-adjust="none"
       letter-spacing="normal"
       word-spacing="normal"
       ns0:text="$\\infty$"
       ns0:preamble=""
       style="font-style:normal;font-variant:normal;font-weight:normal;font-stretch:normal;letter-spacing:normal;word-spacing:normal;text-anchor:start;fill:none;stroke:#000000;stroke-linecap:butt;stroke-linejoin:miter;stroke-miterlimit:10.43299961;stroke-opacity:1;stroke-dasharray:none;stroke-dashoffset:0">
<path
   d="m 228.5,709.82 -0.05,0.06 -0.05,0.06 -0.04,0.06 -0.05,0.05 -0.04,0.05 -0.04,0.05 -0.03,0.05 -0.04,0.04 -0.03,0.04 -0.03,0.04 -0.04,0.04 -0.02,0.03 -0.03,0.04 -0.03,0.03 -0.03,0.03 -0.02,0.03 -0.03,0.03 -0.02,0.03 -0.03,0.02 -0.02,0.03 -0.05,0.04 -0.05,0.05 -0.04,0.04 -0.05,0.05 -0.06,0.04 -0.02,0.02 -0.03,0.03 c -0.56,0.44 -1.12,0.62 -1.63,0.62 -1.16,0 -1.92,-1.09 -1.92,-2.25 h 0.22 c 0,0.97 0.67,1.78 1.54,1.78 0.58,0 1.03,-0.42 1.24,-0.63 0.25,-0.27 0.48,-0.58 1.09,-1.36 h 0 c -0.41,-0.72 -1.15,-1.73 -2.28,-1.73 -1.05,0 -1.59,1.04 -1.59,1.94 h -0.22 c 0,-1.15 0.74,-2.25 1.88,-2.25 1.15,0 1.98,0.9 2.47,1.7 0.54,-0.68 0.65,-0.83 0.96,-1.08 0.56,-0.44 1.12,-0.62 1.63,-0.62 1.17,0 1.92,1.09 1.92,2.26 h -0.22 c 0,-0.98 -0.66,-1.79 -1.54,-1.79 -0.58,0 -1.03,0.42 -1.24,0.63 -0.25,0.27 -0.48,0.58 -1.08,1.36 h 0 c 0.4,0.72 1.14,1.73 2.27,1.73 1.06,0 1.59,-1.04 1.59,-1.93 h 0.22 c 0,1.14 -0.74,2.24 -1.88,2.24 -1.15,0 -1.98,-0.9 -2.46,-1.7 z"
   id="path4056-8-0"
   inkscape:connector-curvature="0"
   style="fill:#000000;stroke-width:0" />
</g>    <flowRoot
       transform="matrix(0.75303186,0,0,0.75110376,-7.101524,427.69183)"
       style="font-size:32px;font-style:normal;font-variant:normal;font-weight:normal;font-stretch:normal;text-align:start;line-height:80.00000119%;letter-spacing:0px;word-spacing:0px;writing-mode:lr-tb;text-anchor:start;fill:#000000;fill-opacity:1;stroke:none;font-family:Times New Roman;-inkscape-font-specification:Times New Roman"
       id="flowRoot13924-4-4-2-6-6"
       xml:space="preserve"><flowRegion
         id="flowRegion13926-1-7-8-2-6"><rect
           y="72.362183"
           x="90"
           height="40"
           width="87.14286"
           id="rect13928-2-8-2-14-1" /></flowRegion><flowPara
         style="font-size:20px"
         id="flowPara13930-0-3-5-6-8">[1,+   ]</flowPara></flowRoot>    <g
       id="content-3-4"
       transform="matrix(1.19327,0,0,-1.1440574,-180.92632,1296.93)"
       xml:space="preserve"
       stroke-miterlimit="10.433"
       font-style="normal"
       font-variant="normal"
       font-weight="normal"
       font-stretch="normal"
       font-size-adjust="none"
       letter-spacing="normal"
       word-spacing="normal"
       ns0:text="$\\infty$"
       ns0:preamble=""
       style="font-style:normal;font-variant:normal;font-weight:normal;font-stretch:normal;letter-spacing:normal;word-spacing:normal;text-anchor:start;fill:none;stroke:#000000;stroke-linecap:butt;stroke-linejoin:miter;stroke-miterlimit:10.43299961;stroke-opacity:1;stroke-dasharray:none;stroke-dashoffset:0">
<path
   d="m 228.5,709.82 -0.05,0.06 -0.05,0.06 -0.04,0.06 -0.05,0.05 -0.04,0.05 -0.04,0.05 -0.03,0.05 -0.04,0.04 -0.03,0.04 -0.03,0.04 -0.04,0.04 -0.02,0.03 -0.03,0.04 -0.03,0.03 -0.03,0.03 -0.02,0.03 -0.03,0.03 -0.02,0.03 -0.03,0.02 -0.02,0.03 -0.05,0.04 -0.05,0.05 -0.04,0.04 -0.05,0.05 -0.06,0.04 -0.02,0.02 -0.03,0.03 c -0.56,0.44 -1.12,0.62 -1.63,0.62 -1.16,0 -1.92,-1.09 -1.92,-2.25 h 0.22 c 0,0.97 0.67,1.78 1.54,1.78 0.58,0 1.03,-0.42 1.24,-0.63 0.25,-0.27 0.48,-0.58 1.09,-1.36 h 0 c -0.41,-0.72 -1.15,-1.73 -2.28,-1.73 -1.05,0 -1.59,1.04 -1.59,1.94 h -0.22 c 0,-1.15 0.74,-2.25 1.88,-2.25 1.15,0 1.98,0.9 2.47,1.7 0.54,-0.68 0.65,-0.83 0.96,-1.08 0.56,-0.44 1.12,-0.62 1.63,-0.62 1.17,0 1.92,1.09 1.92,2.26 h -0.22 c 0,-0.98 -0.66,-1.79 -1.54,-1.79 -0.58,0 -1.03,0.42 -1.24,0.63 -0.25,0.27 -0.48,0.58 -1.08,1.36 h 0 c 0.4,0.72 1.14,1.73 2.27,1.73 1.06,0 1.59,-1.04 1.59,-1.93 h 0.22 c 0,1.14 -0.74,2.24 -1.88,2.24 -1.15,0 -1.98,-0.9 -2.46,-1.7 z"
   id="path4056-8-9"
   inkscape:connector-curvature="0"
   style="fill:#000000;stroke-width:0" />
</g>    <flowRoot
       transform="matrix(0.75303186,0,0,0.75110376,69.551658,428.91513)"
       style="font-size:32px;font-style:normal;font-variant:normal;font-weight:normal;font-stretch:normal;text-align:start;line-height:80.00000119%;letter-spacing:0px;word-spacing:0px;writing-mode:lr-tb;text-anchor:start;fill:#000000;fill-opacity:1;stroke:none;font-family:Times New Roman;-inkscape-font-specification:Times New Roman"
       id="flowRoot13924-4-4-2-6-63"
       xml:space="preserve"><flowRegion
         id="flowRegion13926-1-7-8-2-7"><rect
           y="72.362183"
           x="90"
           height="40"
           width="87.14286"
           id="rect13928-2-8-2-14-8" /></flowRegion><flowPara
         style="font-size:20px"
         id="flowPara13930-0-3-5-6-82">[1,+   ]</flowPara></flowRoot>    <g
       id="content-3-9"
       transform="matrix(1.19327,0,0,-1.1440574,-104.27313,1298.1534)"
       xml:space="preserve"
       stroke-miterlimit="10.433"
       font-style="normal"
       font-variant="normal"
       font-weight="normal"
       font-stretch="normal"
       font-size-adjust="none"
       letter-spacing="normal"
       word-spacing="normal"
       ns0:text="$\\infty$"
       ns0:preamble=""
       style="font-style:normal;font-variant:normal;font-weight:normal;font-stretch:normal;letter-spacing:normal;word-spacing:normal;text-anchor:start;fill:none;stroke:#000000;stroke-linecap:butt;stroke-linejoin:miter;stroke-miterlimit:10.43299961;stroke-opacity:1;stroke-dasharray:none;stroke-dashoffset:0">
<path
   d="m 228.5,709.82 -0.05,0.06 -0.05,0.06 -0.04,0.06 -0.05,0.05 -0.04,0.05 -0.04,0.05 -0.03,0.05 -0.04,0.04 -0.03,0.04 -0.03,0.04 -0.04,0.04 -0.02,0.03 -0.03,0.04 -0.03,0.03 -0.03,0.03 -0.02,0.03 -0.03,0.03 -0.02,0.03 -0.03,0.02 -0.02,0.03 -0.05,0.04 -0.05,0.05 -0.04,0.04 -0.05,0.05 -0.06,0.04 -0.02,0.02 -0.03,0.03 c -0.56,0.44 -1.12,0.62 -1.63,0.62 -1.16,0 -1.92,-1.09 -1.92,-2.25 h 0.22 c 0,0.97 0.67,1.78 1.54,1.78 0.58,0 1.03,-0.42 1.24,-0.63 0.25,-0.27 0.48,-0.58 1.09,-1.36 h 0 c -0.41,-0.72 -1.15,-1.73 -2.28,-1.73 -1.05,0 -1.59,1.04 -1.59,1.94 h -0.22 c 0,-1.15 0.74,-2.25 1.88,-2.25 1.15,0 1.98,0.9 2.47,1.7 0.54,-0.68 0.65,-0.83 0.96,-1.08 0.56,-0.44 1.12,-0.62 1.63,-0.62 1.17,0 1.92,1.09 1.92,2.26 h -0.22 c 0,-0.98 -0.66,-1.79 -1.54,-1.79 -0.58,0 -1.03,0.42 -1.24,0.63 -0.25,0.27 -0.48,0.58 -1.08,1.36 h 0 c 0.4,0.72 1.14,1.73 2.27,1.73 1.06,0 1.59,-1.04 1.59,-1.93 h 0.22 c 0,1.14 -0.74,2.24 -1.88,2.24 -1.15,0 -1.98,-0.9 -2.46,-1.7 z"
   id="path4056-8-1"
   inkscape:connector-curvature="0"
   style="fill:#000000;stroke-width:0" />
</g>    <flowRoot
       style="font-size:13px;font-style:normal;font-weight:normal;line-height:125%;letter-spacing:0px;word-spacing:0px;fill:#000000;fill-opacity:1;stroke:none;font-family:Sans"
       id="flowRoot3681"
       xml:space="preserve"><flowRegion
         id="flowRegion3683"><rect
           y="248.88348"
           x="532.0639"
           height="13.819841"
           width="6.9099207"
           id="rect3685" /></flowRegion><flowPara
         id="flowPara3687">A</flowPara></flowRoot>    <path
       sodipodi:nodetypes="csc"
       style="fill:none;stroke:#000000;stroke-width:0.97200471;stroke-linecap:butt;stroke-linejoin:miter;stroke-miterlimit:4;stroke-opacity:1;stroke-dasharray:none;marker-end:none"
       d="m 275.4153,376.6361 c 10.49103,-0.027 17.2418,-0.043 21.58536,-0.0538 7.61807,-0.021 7.83123,-0.018 7.83123,-0.018"
       id="path2741-0-1-7-3-3-7-5-0"
       inkscape:connector-curvature="0" />
    <g
       ns0:preamble=""
       ns0:text="$\\hat{G}[B2,2]$"
       word-spacing="normal"
       letter-spacing="normal"
       font-size-adjust="none"
       font-stretch="normal"
       font-weight="normal"
       font-variant="normal"
       font-style="normal"
       stroke-miterlimit="10.433"
       xml:space="preserve"
       transform="matrix(1.3558046,0,0,-1.3748848,-30.904184,1204.7322)"
       id="g4928"
       style="font-style:normal;font-variant:normal;font-weight:normal;font-stretch:normal;letter-spacing:normal;word-spacing:normal;text-anchor:start;fill:none;stroke:#000000;stroke-linecap:butt;stroke-linejoin:miter;stroke-miterlimit:10.43299961;stroke-opacity:1;stroke-dasharray:none;stroke-dashoffset:0">
<polygon
   id="polygon4930"
   points="228.18,716.55 226.84,715.2 227.02,715.02 228.18,716.03 229.33,715.02 229.51,715.2 "
   style="fill:#000000;stroke-width:0"
   transform="matrix(1.3371763,0,0,1.4059027,-75.503881,-290.84955)" />
<path
   id="path4932"
   d="m 233.39721,713.02118 0,0 0,0.0141 0,0 0,0 0,0.0141 0,0 -0.0134,0.0141 0,0 0,0 0,0.0141 0,0 0,0.0141 -0.0134,0 0,0 0,0.0141 0,0 -0.0134,0.0141 0,0 0,0 -0.0134,0.0141 0,0 -0.0134,0 0,0.0141 -0.0134,0 0,0 -0.0134,0 0,0 0,0.014 0,0 -0.0134,0 0,0 0,0 -0.0134,0 0,0 -0.0134,0 0,0 0,0 -0.0134,0 0,0 c -0.0401,0 -0.0535,-0.014 -0.20058,-0.1687 l -0.93602,-1.06849 c -0.12035,0.19683 -0.73545,1.23719 -2.20634,1.23719 -2.98191,0 -5.97718,-3.09298 -5.97718,-6.34062 0,-2.22132 1.48427,-3.82405 3.63712,-3.82405 0.58836,0 1.19009,0.12653 1.67147,0.33741 0.66859,0.26713 0.92265,0.56237 1.14997,0.84355 0.12035,-0.35148 0.46801,-0.8576 0.60173,-0.8576 0.0669,0 0.0936,0.0281 0.0936,0.0422 0.0267,0.0422 0.16046,0.56236 0.22732,0.8576 l 0.25407,1.08255 c 0.0535,0.239 0.12034,0.47801 0.17383,0.71701 0.14709,0.6186 0.16046,0.64671 0.92265,0.66077 0.0669,0 0.21395,0.0141 0.21395,0.28118 0,0.0984 -0.0669,0.15465 -0.17383,0.15465 -0.30755,0 -1.09649,-0.0422 -1.40404,-0.0422 -0.41452,0 -1.44415,0.0422 -1.85867,0.0422 -0.12035,0 -0.28081,0 -0.28081,-0.28118 0,-0.15465 0.10697,-0.15465 0.40115,-0.15465 0.0134,0 0.40115,0 0.69533,-0.0281 0.36104,-0.0422 0.41453,-0.0844 0.41453,-0.26713 0,-0.12653 -0.13372,-0.74512 -0.28081,-1.26531 -0.36104,-1.54649 -2.09937,-1.68708 -2.56738,-1.68708 -1.28369,0 -2.67435,0.7873 -2.67435,2.92428 0,0.43583 0.13372,2.75556 1.52438,4.56918 0.72208,0.95601 2.01914,1.79955 3.34294,1.79955 1.35055,0 2.13948,-1.06848 2.13948,-2.69933 0,-0.56236 -0.0401,-0.57642 -0.0401,-0.70295 0,-0.15465 0.14709,-0.15465 0.20058,-0.15465 0.17383,0 0.17383,0.0422 0.24069,0.28118 z"
   inkscape:connector-curvature="0"
   style="fill:#000000;stroke-width:0" />
<polygon
   id="polygon4934"
   points="233.81,714.19 233.81,714.59 232.44,714.59 232.44,704.64 233.81,704.64 233.81,705.03 232.84,705.03 232.84,714.19 "
   style="fill:#000000;stroke-width:0"
   transform="matrix(1.3371763,0,0,1.4059027,-75.503881,-290.84955)" />
<path
   id="path4936"
   d="m 239.57496,704.38894 -0.0134,-0.0422 -0.0134,-0.0562 -0.0134,-0.0422 -0.0134,-0.0422 -0.0134,-0.0422 -0.0134,-0.0422 -0.0134,-0.0281 -0.0134,-0.0422 -0.0134,-0.0281 -0.0134,-0.0281 -0.0134,-0.0281 -0.0267,-0.0281 -0.0134,-0.0141 -0.0267,-0.0281 -0.0267,-0.0141 -0.0267,-0.0281 -0.0268,-0.0141 -0.0401,-0.0141 -0.0267,-0.0141 -0.0401,-0.0141 -0.0401,-0.0141 -0.0267,0 -0.0267,-0.0141 -0.0267,0 -0.0267,0 -0.0267,0 -0.0267,-0.014 -0.0267,0 -0.0267,0 -0.0401,0 -0.0267,-0.0141 -0.0401,0 -0.0267,0 -0.0401,0 -0.0401,0 -0.0401,0 -0.0401,0 -0.0401,0 -0.0401,0 -0.0401,-0.0141 -0.0535,0 -0.0401,0 -0.0535,0 c -0.22732,0 -0.36104,0 -0.36104,-0.28118 0,-0.14059 0.12035,-0.14059 0.36104,-0.14059 h 4.76035 c 2.09937,0 3.67723,1.6449 3.67723,3.02269 0,0.99819 -0.77556,1.81361 -2.05925,1.96826 1.37729,0.26712 2.78133,1.29343 2.78133,2.62904 0,1.04037 -0.88254,1.92609 -2.48715,1.92609 l -0.1872,-0.43583 c 1.17671,0 1.45752,-0.81543 1.45752,-1.43402 0,-1.2372 -1.14997,-2.55875 -2.76796,-2.55875 h -1.95227 l -0.0802,-0.3093 h 2.52726 c 1.27032,0 1.52438,-1.04036 1.52438,-1.6449 0,-1.37779 -1.17671,-2.74151 -2.75458,-2.74151 H 240.979 c -0.18721,0 -0.21395,0 -0.29418,0.0141 -0.12035,0.0141 -0.16046,0.0281 -0.16046,0.14059 0,0.0422 0,0.0703 0.0669,0.32335 l 0.90928,3.90841 0.0802,0.3093 0.82905,3.47258 c 0.12034,0.47801 0.14709,0.52019 0.72207,0.52019 h 1.71159 l 0.1872,0.43583 h -4.46617 c -0.25406,0 -0.38778,0 -0.38778,-0.28118 0,-0.15465 0.12035,-0.15465 0.37441,-0.15465 0.0267,0 0.28081,0 0.49476,-0.0281 0.24069,-0.0281 0.36103,-0.0422 0.36103,-0.22495 0,-0.0422 -0.0134,-0.0984 -0.0535,-0.25306 z"
   inkscape:connector-curvature="0"
   style="fill:#000000;stroke-width:0" />
<path
   id="path4938"
   d="m 249.89796,704.37488 1.41741,1.44808 c 2.08599,1.92609 2.8883,2.68528 2.8883,4.07712 0,1.60273 -1.20346,2.71339 -2.83481,2.71339 -1.51101,0 -2.48715,-1.27937 -2.48715,-2.53062 0,-0.77325 0.66859,-0.77325 0.7087,-0.77325 0.22732,0 0.68196,0.15465 0.68196,0.73107 0,0.36554 -0.22732,0.73107 -0.69533,0.73107 -0.10697,0 -0.13372,0 -0.17383,-0.0141 0.30755,0.91384 1.01625,1.43402 1.79181,1.43402 1.21683,0 1.79182,-1.13878 1.79182,-2.29162 0,-1.11066 -0.66859,-2.22133 -1.40403,-3.09299 l -2.55401,-2.99457 c -0.14709,-0.15465 -0.14709,-0.18277 -0.14709,-0.50612 h 4.94755 l 0.37441,2.43221 h -0.33429 c -0.0669,-0.42177 -0.16046,-1.04037 -0.29418,-1.25125 -0.0936,-0.11248 -0.97614,-0.11248 -1.27032,-0.11248 z"
   inkscape:connector-curvature="0"
   style="fill:#000000;stroke-width:0" />
<path
   id="path4940"
   d="m 257.58673,703.32046 -0.0134,0.0843 0,0.0843 0,0.0703 -0.0134,0.0844 0,0.0703 -0.0134,0.0843 -0.0134,0.0703 -0.0134,0.0703 -0.0134,0.0562 -0.0134,0.0703 -0.0267,0.0562 -0.0134,0.0562 -0.0267,0.0562 -0.0267,0.0562 -0.0267,0.0562 -0.0267,0.0422 -0.0267,0.0562 -0.0267,0.0422 -0.0401,0.0422 -0.0267,0.0281 -0.0401,0.0422 -0.0267,0.0281 -0.0401,0.0281 -0.0401,0.0281 -0.0401,0.0281 -0.0401,0.0141 -0.0401,0.0141 -0.0401,0.0141 -0.0535,0.0141 -0.0401,0.014 -0.0535,0 -0.0401,0 c -0.44126,0 -0.7087,-0.35147 -0.7087,-0.74512 0,-0.3796 0.26744,-0.73107 0.7087,-0.73107 0.16046,0 0.3343,0.0422 0.46802,0.16871 0.0401,0.0281 0.0535,0.0422 0.0535,0.0422 0.0267,0 0.0401,-0.0141 0.0401,-0.19682 0,-1.04037 -0.46801,-1.88391 -0.90928,-2.34786 -0.14709,-0.15465 -0.14709,-0.18277 -0.14709,-0.22495 0,-0.0984 0.0669,-0.15465 0.13372,-0.15465 0.14709,0 1.21683,1.08255 1.21683,2.72746 z"
   inkscape:connector-curvature="0"
   style="fill:#000000;stroke-width:0" />
<path
   id="path4942"
   d="m 262.48079,704.37488 1.41741,1.44808 c 2.08599,1.92609 2.87493,2.68528 2.87493,4.07712 0,1.60273 -1.19009,2.71339 -2.82144,2.71339 -1.51101,0 -2.48715,-1.27937 -2.48715,-2.53062 0,-0.77325 0.65521,-0.77325 0.69533,-0.77325 0.22732,0 0.69533,0.15465 0.69533,0.73107 0,0.36554 -0.24069,0.73107 -0.7087,0.73107 -0.10698,0 -0.13372,0 -0.17384,-0.0141 0.30756,0.91384 1.02963,1.43402 1.80519,1.43402 1.21683,0 1.79182,-1.13878 1.79182,-2.29162 0,-1.11066 -0.66859,-2.22133 -1.40404,-3.09299 l -2.554,-2.99457 c -0.14709,-0.15465 -0.14709,-0.18277 -0.14709,-0.50612 h 4.94755 l 0.36104,2.43221 h -0.32092 c -0.0669,-0.42177 -0.17384,-1.04037 -0.29418,-1.25125 -0.0936,-0.11248 -0.97614,-0.11248 -1.27032,-0.11248 z"
   inkscape:connector-curvature="0"
   style="fill:#000000;stroke-width:0" />
<polygon
   id="polygon4944"
   points="257.67,705.03 256.7,705.03 256.7,704.64 258.06,704.64 258.06,714.59 256.7,714.59 256.7,714.19 257.67,714.19 "
   style="fill:#000000;stroke-width:0"
   transform="matrix(1.3371763,0,0,1.4059027,-75.503881,-290.84955)" />
</g>    <path
       inkscape:connector-curvature="0"
       id="path3084-5-9"
       d="m 390.80543,307.46593 162.57453,0 -0.51614,18.19771 -162.05839,0.48526 z"
       style="fill:none;stroke:#000000;stroke-width:1.73820806px;stroke-linecap:butt;stroke-linejoin:miter;stroke-opacity:1" />
    <path
       inkscape:connector-curvature="0"
       id="path3084-7-6-4"
       d="m 390.91605,326.08575 162.57459,0 -0.51615,18.1977 -162.05844,0.48526 z"
       style="fill:none;stroke:#000000;stroke-width:1.73820806px;stroke-linecap:butt;stroke-linejoin:miter;stroke-opacity:1" />
    <g
       style="font-style:normal;font-variant:normal;font-weight:normal;font-stretch:normal;letter-spacing:normal;word-spacing:normal;text-anchor:start;fill:none;stroke:#000000;stroke-linecap:butt;stroke-linejoin:miter;stroke-miterlimit:10.43299961;stroke-opacity:1;stroke-dasharray:none;stroke-dashoffset:0"
       id="content"
       transform="matrix(1.6642521,0,0,-1.6003623,86.348769,1452.4881)"
       xml:space="preserve"
       stroke-miterlimit="10.433"
       font-style="normal"
       font-variant="normal"
       font-weight="normal"
       font-stretch="normal"
       font-size-adjust="none"
       letter-spacing="normal"
       word-spacing="normal"
       ns0:text="$B_p$"
       ns0:preamble="">
<path
   style="fill:#000000;stroke-width:0"
   inkscape:connector-curvature="0"
   d="m 225.03,707.9 -0.01,-0.03 -0.01,-0.04 -0.01,-0.03 -0.01,-0.03 -0.01,-0.03 -0.01,-0.03 -0.01,-0.02 -0.01,-0.03 -0.01,-0.02 -0.01,-0.02 -0.01,-0.02 -0.02,-0.02 -0.01,-0.01 -0.02,-0.02 -0.02,-0.01 -0.02,-0.02 -0.02,-0.01 -0.03,-0.01 -0.02,-0.01 -0.03,-0.01 -0.04,-0.01 -0.01,0 -0.02,-0.01 -0.02,0 -0.02,0 -0.02,0 -0.02,-0.01 -0.02,0 -0.02,0 -0.03,0 -0.02,-0.01 -0.03,0 -0.02,0 -0.03,0 -0.03,0 -0.03,0 -0.03,0 -0.03,0 -0.03,0 -0.03,-0.01 -0.04,0 -0.03,0 -0.04,0 c -0.17,0 -0.27,0 -0.27,-0.2 0,-0.1 0.09,-0.1 0.27,-0.1 h 3.56 c 1.57,0 2.75,1.17 2.75,2.15 0,0.71 -0.58,1.29 -1.55,1.4 1.04,0.19 2.09,0.92 2.09,1.87 0,0.74 -0.66,1.37 -1.86,1.37 l -0.14,-0.31 c 0.88,0 1.09,-0.58 1.09,-1.02 0,-0.88 -0.86,-1.82 -2.07,-1.82 h -1.46 l -0.06,-0.22 h 1.89 c 0.95,0 1.14,-0.74 1.14,-1.17 0,-0.98 -0.88,-1.95 -2.06,-1.95 h -1.36 c -0.14,0 -0.16,0 -0.22,0.01 -0.1,0.01 -0.12,0.02 -0.12,0.1 0,0.03 0,0.05 0.05,0.23 l 0.68,2.78 0.06,0.22 0.62,2.47 c 0.09,0.34 0.11,0.37 0.54,0.37 h 1.28 l 0.14,0.31 h -3.35 c -0.19,0 -0.28,0 -0.28,-0.2 0,-0.11 0.09,-0.11 0.28,-0.11 0.01,0 0.2,0 0.37,-0.02 0.18,-0.02 0.27,-0.03 0.27,-0.16 0,-0.03 -0.01,-0.07 -0.04,-0.18 z"
   id="path3431" />
<path
   style="fill:#000000;stroke-width:0"
   inkscape:connector-curvature="0"
   d="m 231.51,704.78 0,-0.01 -0.01,-0.02 0,-0.02 -0.01,-0.01 0,-0.02 0,-0.01 -0.01,-0.02 0,-0.01 -0.01,-0.01 0,-0.01 -0.01,-0.01 0,-0.01 -0.01,-0.01 -0.01,-0.01 0,-0.01 -0.01,-0.01 -0.01,0 -0.01,-0.01 -0.01,0 -0.01,-0.01 -0.01,0 -0.02,-0.01 -0.01,0 -0.02,-0.01 -0.01,0 -0.01,0 -0.01,0 -0.01,0 -0.01,0 -0.01,0 -0.01,-0.01 -0.01,0 -0.01,0 -0.01,0 -0.01,0 -0.01,0 -0.01,0 -0.02,0 -0.01,0 c -0.09,0 -0.19,0 -0.19,-0.14 0,-0.08 0.06,-0.11 0.1,-0.11 0.18,0 0.41,0.03 0.6,0.03 0.23,0 0.5,-0.03 0.73,-0.03 0.06,0 0.14,0.02 0.14,0.15 0,0.1 -0.1,0.1 -0.18,0.1 -0.16,0 -0.34,0 -0.34,0.09 0,0.03 0.04,0.21 0.07,0.32 0.09,0.36 0.18,0.74 0.26,1.03 0.09,-0.14 0.3,-0.41 0.72,-0.41 v 0.2 c -0.5,0 -0.62,0.53 -0.62,0.6 0,0.03 0.01,0.08 0.02,0.11 l 0.35,1.39 c 0.4,0.54 0.75,0.64 0.97,0.64 0.27,0 0.51,-0.2 0.51,-0.67 0,-0.29 -0.15,-1 -0.36,-1.4 -0.18,-0.34 -0.52,-0.67 -0.87,-0.67 v -0.2 c 0.85,0 1.79,0.94 1.79,1.98 0,0.81 -0.57,1.16 -1.05,1.16 -0.43,0 -0.8,-0.29 -0.98,-0.49 -0.12,0.4 -0.51,0.49 -0.72,0.49 -0.27,0 -0.44,-0.18 -0.55,-0.37 -0.14,-0.24 -0.25,-0.66 -0.25,-0.7 0,-0.09 0.09,-0.09 0.11,-0.09 0.1,0 0.11,0.02 0.16,0.21 0.1,0.41 0.23,0.75 0.51,0.75 0.18,0 0.23,-0.15 0.23,-0.34 0,-0.07 -0.02,-0.17 -0.03,-0.21 z"
   id="path3433" />
</g>    <text
       transform="scale(0.9711393,1.0297184)"
       sodipodi:linespacing="125%"
       id="text3744-9-4-7-2-7"
       y="330.22327"
       x="416.8187"
       style="font-size:9.48254299px;font-style:normal;font-weight:normal;line-height:125%;letter-spacing:0px;word-spacing:0px;fill:#000000;fill-opacity:1;stroke:none;font-family:Sans"
       xml:space="preserve"><tspan
         style="font-size:15.04134369px"
         y="330.22327"
         x="416.8187"
         id="tspan3746-3-0-1-7-73"
         sodipodi:role="line">&lt;A,1&gt;  &lt;B,1&gt;  &lt;C,2&gt;</tspan></text>
    <path
       inkscape:connector-curvature="0"
       id="path3084-5-9-0"
       d="m 389.80682,395.12492 162.57452,0 -0.51614,18.19771 -162.05838,0.48526 z"
       style="fill:none;stroke:#000000;stroke-width:1.73820806px;stroke-linecap:butt;stroke-linejoin:miter;stroke-opacity:1" />
    <path
       inkscape:connector-curvature="0"
       id="path3084-7-6-4-1"
       d="m 389.91744,413.74474 162.57458,0 -0.51615,18.1977 -162.05843,0.48526 z"
       style="fill:none;stroke:#000000;stroke-width:1.73820806px;stroke-linecap:butt;stroke-linejoin:miter;stroke-opacity:1" />
    <text
       transform="scale(0.9711393,1.0297184)"
       sodipodi:linespacing="125%"
       id="text3744-9-4-7-2-7-6"
       y="415.35266"
       x="415.79031"
       style="font-size:9.48254299px;font-style:normal;font-weight:normal;line-height:125%;letter-spacing:0px;word-spacing:0px;fill:#000000;fill-opacity:1;stroke:none;font-family:Sans"
       xml:space="preserve"><tspan
         style="font-size:15.04134369px"
         y="415.35266"
         x="415.79031"
         id="tspan3746-3-0-1-7-73-1"
         sodipodi:role="line">&lt;A,2&gt;  &lt;B,2&gt;  &lt;C,2&gt;</tspan></text>
    <g
       ns0:preamble=""
       ns0:text="$B_g$"
       word-spacing="normal"
       letter-spacing="normal"
       font-size-adjust="none"
       font-stretch="normal"
       font-weight="normal"
       font-variant="normal"
       font-style="normal"
       stroke-miterlimit="10.433"
       xml:space="preserve"
       transform="matrix(1.6360126,0,0,-1.5487282,91.63325,1502.5783)"
       id="g3758-6-8"
       style="font-style:normal;font-variant:normal;font-weight:normal;font-stretch:normal;letter-spacing:normal;word-spacing:normal;text-anchor:start;fill:none;stroke:#000000;stroke-linecap:butt;stroke-linejoin:miter;stroke-miterlimit:10.43299961;stroke-opacity:1;stroke-dasharray:none;stroke-dashoffset:0">
<path
   id="path3760-0-9"
   d="m 225.03,707.9 -0.01,-0.03 -0.01,-0.04 -0.01,-0.03 -0.01,-0.03 -0.01,-0.03 -0.01,-0.03 -0.01,-0.02 -0.01,-0.03 -0.01,-0.02 -0.01,-0.02 -0.01,-0.02 -0.02,-0.02 -0.01,-0.01 -0.02,-0.02 -0.02,-0.01 -0.02,-0.02 -0.02,-0.01 -0.03,-0.01 -0.02,-0.01 -0.03,-0.01 -0.04,-0.01 -0.01,0 -0.02,-0.01 -0.02,0 -0.02,0 -0.02,0 -0.02,-0.01 -0.02,0 -0.02,0 -0.03,0 -0.02,-0.01 -0.03,0 -0.02,0 -0.03,0 -0.03,0 -0.03,0 -0.03,0 -0.03,0 -0.03,0 -0.03,-0.01 -0.04,0 -0.03,0 -0.04,0 c -0.17,0 -0.27,0 -0.27,-0.2 0,-0.1 0.09,-0.1 0.27,-0.1 h 3.56 c 1.57,0 2.75,1.17 2.75,2.15 0,0.71 -0.58,1.29 -1.55,1.4 1.04,0.19 2.09,0.92 2.09,1.87 0,0.74 -0.66,1.37 -1.86,1.37 l -0.14,-0.31 c 0.88,0 1.09,-0.58 1.09,-1.02 0,-0.88 -0.86,-1.82 -2.07,-1.82 h -1.46 l -0.06,-0.22 h 1.89 c 0.95,0 1.14,-0.74 1.14,-1.17 0,-0.98 -0.88,-1.95 -2.06,-1.95 h -1.36 c -0.14,0 -0.16,0 -0.22,0.01 -0.1,0.01 -0.12,0.02 -0.12,0.1 0,0.03 0,0.05 0.05,0.23 l 0.68,2.78 0.06,0.22 0.62,2.47 c 0.09,0.34 0.11,0.37 0.54,0.37 h 1.28 l 0.14,0.31 h -3.35 c -0.19,0 -0.28,0 -0.28,-0.2 0,-0.11 0.09,-0.11 0.28,-0.11 0.01,0 0.2,0 0.37,-0.02 0.18,-0.02 0.27,-0.03 0.27,-0.16 0,-0.03 -0.01,-0.07 -0.04,-0.18 z"
   inkscape:connector-curvature="0"
   style="fill:#000000;stroke-width:0" />
<path
   id="path3762-3-8"
   d="m 234.69,708.2 0.01,0.01 0,0.01 0,0 0,0.01 0.01,0.01 0,0.01 0,0.01 0,0 0,0.01 0,0.01 0,0 0.01,0.01 0,0 0,0.01 0,0 0,0.01 0,0 0,0 0,0.01 0,0 0,0 0,0.01 0,0 0,0 0,0 0,0.01 0,0 0,0 0,0 0,0 0,0 0,0 c 0,0.16 -0.12,0.23 -0.23,0.23 -0.17,0 -0.3,-0.14 -0.33,-0.27 -0.11,0.19 -0.35,0.4 -0.71,0.4 v -0.2 c 0.48,0 0.62,-0.52 0.62,-0.59 0,-0.01 0,-0.03 -0.02,-0.1 l -0.32,-1.25 c -0.02,-0.11 -0.02,-0.12 -0.14,-0.26 -0.25,-0.29 -0.58,-0.47 -0.85,-0.47 -0.35,0 -0.52,0.3 -0.52,0.66 0,0.3 0.19,1.08 0.37,1.39 0.29,0.48 0.62,0.62 0.86,0.62 v 0.2 c -0.87,0 -1.79,-0.93 -1.79,-1.93 0,-0.72 0.49,-1.14 1.06,-1.14 0.32,0 0.63,0.16 0.87,0.38 l -0.15,-0.63 c -0.08,-0.29 -0.12,-0.48 -0.39,-0.72 -0.31,-0.25 -0.6,-0.25 -0.78,-0.25 -0.32,0 -0.41,0.02 -0.54,0.05 0.18,0.08 0.23,0.25 0.23,0.34 0,0.17 -0.14,0.26 -0.28,0.26 -0.19,0 -0.39,-0.16 -0.39,-0.42 0,-0.42 0.6,-0.43 0.99,-0.43 1.09,0 1.56,0.56 1.65,0.95 z"
   inkscape:connector-curvature="0"
   style="fill:#000000;stroke-width:0" />
</g>  </g>
</svg>
